G04 #@! TF.GenerationSoftware,KiCad,Pcbnew,6.0.9-8da3e8f707~116~ubuntu20.04.1*
G04 #@! TF.CreationDate,2023-04-19T17:26:23+00:00*
G04 #@! TF.ProjectId,LEC022102,4c454330-3232-4313-9032-2e6b69636164,rev?*
G04 #@! TF.SameCoordinates,Original*
G04 #@! TF.FileFunction,Copper,L2,Bot*
G04 #@! TF.FilePolarity,Positive*
%FSLAX46Y46*%
G04 Gerber Fmt 4.6, Leading zero omitted, Abs format (unit mm)*
G04 Created by KiCad (PCBNEW 6.0.9-8da3e8f707~116~ubuntu20.04.1) date 2023-04-19 17:26:23*
%MOMM*%
%LPD*%
G01*
G04 APERTURE LIST*
G04 #@! TA.AperFunction,ComponentPad*
%ADD10R,3.000000X3.000000*%
G04 #@! TD*
G04 #@! TA.AperFunction,ComponentPad*
%ADD11C,3.000000*%
G04 #@! TD*
G04 #@! TA.AperFunction,ComponentPad*
%ADD12R,1.800000X1.800000*%
G04 #@! TD*
G04 #@! TA.AperFunction,ComponentPad*
%ADD13C,1.800000*%
G04 #@! TD*
G04 #@! TA.AperFunction,Conductor*
%ADD14C,1.500000*%
G04 #@! TD*
G04 APERTURE END LIST*
D10*
G04 #@! TO.P,J2,1,Pin_1*
G04 #@! TO.N,/R1*
X104140000Y-93980000D03*
D11*
G04 #@! TO.P,J2,2,Pin_2*
G04 #@! TO.N,/C1*
X109220000Y-93980000D03*
G04 #@! TO.P,J2,3,Pin_3*
G04 #@! TO.N,/S1*
X114300000Y-93980000D03*
G04 #@! TD*
D10*
G04 #@! TO.P,J3,1,Pin_1*
G04 #@! TO.N,/S2*
X114300000Y-71120000D03*
D11*
G04 #@! TO.P,J3,2,Pin_2*
G04 #@! TO.N,/C2*
X109220000Y-71120000D03*
G04 #@! TO.P,J3,3,Pin_3*
G04 #@! TO.N,/R2*
X104140000Y-71120000D03*
G04 #@! TD*
D12*
G04 #@! TO.P,K1,1*
G04 #@! TO.N,/S*
X104267000Y-86487000D03*
D13*
G04 #@! TO.P,K1,2*
G04 #@! TO.N,/R*
X106807000Y-86487000D03*
G04 #@! TO.P,K1,4*
G04 #@! TO.N,/C1*
X111887000Y-86487000D03*
G04 #@! TO.P,K1,6*
G04 #@! TO.N,/R1*
X116967000Y-86487000D03*
G04 #@! TO.P,K1,8*
G04 #@! TO.N,/S1*
X122047000Y-86487000D03*
G04 #@! TO.P,K1,9*
G04 #@! TO.N,/S2*
X122047000Y-78867000D03*
G04 #@! TO.P,K1,11*
G04 #@! TO.N,/R2*
X116967000Y-78867000D03*
G04 #@! TO.P,K1,13*
G04 #@! TO.N,/C2*
X111887000Y-78867000D03*
G04 #@! TO.P,K1,15*
G04 #@! TO.N,Net-(D1-Pad2)*
X106807000Y-78867000D03*
G04 #@! TO.P,K1,16*
X104267000Y-78867000D03*
G04 #@! TD*
D10*
G04 #@! TO.P,J1,1,Pin_1*
G04 #@! TO.N,/R*
X90170000Y-77470000D03*
D11*
G04 #@! TO.P,J1,2,Pin_2*
G04 #@! TO.N,/C*
X90170000Y-82550000D03*
G04 #@! TO.P,J1,3,Pin_3*
G04 #@! TO.N,/S*
X90170000Y-87630000D03*
G04 #@! TD*
D12*
G04 #@! TO.P,K2,1*
G04 #@! TO.N,/S*
X130094688Y-86487000D03*
D13*
G04 #@! TO.P,K2,2*
G04 #@! TO.N,/R*
X132634688Y-86487000D03*
G04 #@! TO.P,K2,4*
G04 #@! TO.N,/C3*
X137714688Y-86487000D03*
G04 #@! TO.P,K2,6*
G04 #@! TO.N,/R3*
X142794688Y-86487000D03*
G04 #@! TO.P,K2,8*
G04 #@! TO.N,/S3*
X147874688Y-86487000D03*
G04 #@! TO.P,K2,9*
G04 #@! TO.N,/S4*
X147874688Y-78867000D03*
G04 #@! TO.P,K2,11*
G04 #@! TO.N,/R4*
X142794688Y-78867000D03*
G04 #@! TO.P,K2,13*
G04 #@! TO.N,/C4*
X137714688Y-78867000D03*
G04 #@! TO.P,K2,15*
G04 #@! TO.N,Net-(D1-Pad2)*
X132634688Y-78867000D03*
G04 #@! TO.P,K2,16*
X130094688Y-78867000D03*
G04 #@! TD*
D10*
G04 #@! TO.P,J5,1,Pin_1*
G04 #@! TO.N,/S4*
X137160000Y-71755000D03*
D11*
G04 #@! TO.P,J5,2,Pin_2*
G04 #@! TO.N,/C4*
X132080000Y-71755000D03*
G04 #@! TO.P,J5,3,Pin_3*
G04 #@! TO.N,/R4*
X127000000Y-71755000D03*
G04 #@! TD*
D10*
G04 #@! TO.P,J4,1,Pin_1*
G04 #@! TO.N,/R3*
X127000000Y-93980000D03*
D11*
G04 #@! TO.P,J4,2,Pin_2*
G04 #@! TO.N,/C3*
X132080000Y-93980000D03*
G04 #@! TO.P,J4,3,Pin_3*
G04 #@! TO.N,/S3*
X137160000Y-93980000D03*
G04 #@! TD*
D14*
G04 #@! TO.N,/R1*
X105664000Y-90170000D02*
X113284000Y-90170000D01*
X113284000Y-90170000D02*
X116967000Y-86487000D01*
X104140000Y-93980000D02*
X104140000Y-91694000D01*
X104140000Y-91694000D02*
X105664000Y-90170000D01*
G04 #@! TO.N,/R2*
X113030000Y-74930000D02*
X116967000Y-78867000D01*
X107950000Y-74930000D02*
X113030000Y-74930000D01*
X104140000Y-71120000D02*
X107950000Y-74930000D01*
G04 #@! TO.N,/R3*
X127000000Y-91694000D02*
X129032000Y-89662000D01*
X127000000Y-93980000D02*
X127000000Y-91694000D01*
X129032000Y-89662000D02*
X139619688Y-89662000D01*
X139619688Y-89662000D02*
X142794688Y-86487000D01*
G04 #@! TO.N,/R4*
X127000000Y-71755000D02*
X131191000Y-75946000D01*
X139873688Y-75946000D02*
X142794688Y-78867000D01*
X131191000Y-75946000D02*
X139873688Y-75946000D01*
G04 #@! TD*
M02*
