G04 #@! TF.GenerationSoftware,KiCad,Pcbnew,6.0.9-8da3e8f707~116~ubuntu20.04.1*
G04 #@! TF.CreationDate,2023-04-19T17:26:23+00:00*
G04 #@! TF.ProjectId,LEC022102,4c454330-3232-4313-9032-2e6b69636164,rev?*
G04 #@! TF.SameCoordinates,Original*
G04 #@! TF.FileFunction,Copper,L1,Top*
G04 #@! TF.FilePolarity,Positive*
%FSLAX46Y46*%
G04 Gerber Fmt 4.6, Leading zero omitted, Abs format (unit mm)*
G04 Created by KiCad (PCBNEW 6.0.9-8da3e8f707~116~ubuntu20.04.1) date 2023-04-19 17:26:23*
%MOMM*%
%LPD*%
G01*
G04 APERTURE LIST*
G04 Aperture macros list*
%AMRoundRect*
0 Rectangle with rounded corners*
0 $1 Rounding radius*
0 $2 $3 $4 $5 $6 $7 $8 $9 X,Y pos of 4 corners*
0 Add a 4 corners polygon primitive as box body*
4,1,4,$2,$3,$4,$5,$6,$7,$8,$9,$2,$3,0*
0 Add four circle primitives for the rounded corners*
1,1,$1+$1,$2,$3*
1,1,$1+$1,$4,$5*
1,1,$1+$1,$6,$7*
1,1,$1+$1,$8,$9*
0 Add four rect primitives between the rounded corners*
20,1,$1+$1,$2,$3,$4,$5,0*
20,1,$1+$1,$4,$5,$6,$7,0*
20,1,$1+$1,$6,$7,$8,$9,0*
20,1,$1+$1,$8,$9,$2,$3,0*%
G04 Aperture macros list end*
G04 #@! TA.AperFunction,EtchedComponent*
%ADD10C,0.010000*%
G04 #@! TD*
G04 #@! TA.AperFunction,SMDPad,CuDef*
%ADD11R,1.200000X0.900000*%
G04 #@! TD*
G04 #@! TA.AperFunction,ComponentPad*
%ADD12R,3.000000X3.000000*%
G04 #@! TD*
G04 #@! TA.AperFunction,ComponentPad*
%ADD13C,3.000000*%
G04 #@! TD*
G04 #@! TA.AperFunction,ComponentPad*
%ADD14R,1.800000X1.800000*%
G04 #@! TD*
G04 #@! TA.AperFunction,ComponentPad*
%ADD15C,1.800000*%
G04 #@! TD*
G04 #@! TA.AperFunction,SMDPad,CuDef*
%ADD16RoundRect,0.243750X0.243750X0.456250X-0.243750X0.456250X-0.243750X-0.456250X0.243750X-0.456250X0*%
G04 #@! TD*
G04 #@! TA.AperFunction,Conductor*
%ADD17C,0.400000*%
G04 #@! TD*
G04 #@! TA.AperFunction,Conductor*
%ADD18C,1.500000*%
G04 #@! TD*
G04 APERTURE END LIST*
G04 #@! TO.C,LOGO1*
G36*
X96161860Y-94007940D02*
G01*
X96474280Y-94007940D01*
X96474280Y-94231460D01*
X95940880Y-94231460D01*
X95940880Y-93134180D01*
X96161860Y-93134180D01*
X96161860Y-94007940D01*
G37*
D10*
X96161860Y-94007940D02*
X96474280Y-94007940D01*
X96474280Y-94231460D01*
X95940880Y-94231460D01*
X95940880Y-93134180D01*
X96161860Y-93134180D01*
X96161860Y-94007940D01*
G36*
X96521001Y-87896871D02*
G01*
X96527439Y-87900923D01*
X96536779Y-87907183D01*
X96548461Y-87915245D01*
X96561928Y-87924707D01*
X96576622Y-87935162D01*
X96591984Y-87946207D01*
X96607457Y-87957438D01*
X96622483Y-87968449D01*
X96636504Y-87978838D01*
X96648962Y-87988199D01*
X96659298Y-87996128D01*
X96666955Y-88002221D01*
X96671375Y-88006073D01*
X96672247Y-88007190D01*
X96670223Y-88008929D01*
X96664295Y-88013496D01*
X96654671Y-88020736D01*
X96641561Y-88030498D01*
X96625174Y-88042627D01*
X96605719Y-88056971D01*
X96583405Y-88073375D01*
X96558442Y-88091687D01*
X96531037Y-88111753D01*
X96501402Y-88133421D01*
X96469743Y-88156535D01*
X96436272Y-88180944D01*
X96401196Y-88206494D01*
X96364724Y-88233032D01*
X96327067Y-88260404D01*
X96315493Y-88268810D01*
X96277445Y-88296442D01*
X96240468Y-88323293D01*
X96204772Y-88349211D01*
X96170572Y-88374040D01*
X96138081Y-88397626D01*
X96107511Y-88419814D01*
X96079075Y-88440451D01*
X96052985Y-88459382D01*
X96029456Y-88476452D01*
X96008699Y-88491507D01*
X95990927Y-88504392D01*
X95976354Y-88514953D01*
X95965192Y-88523036D01*
X95957654Y-88528486D01*
X95953952Y-88531149D01*
X95953630Y-88531375D01*
X95952417Y-88532123D01*
X95951412Y-88532285D01*
X95950595Y-88531437D01*
X95949947Y-88529156D01*
X95949449Y-88525019D01*
X95949081Y-88518601D01*
X95948823Y-88509478D01*
X95948655Y-88497228D01*
X95948559Y-88481427D01*
X95948514Y-88461651D01*
X95948500Y-88437475D01*
X95948499Y-88420446D01*
X95948500Y-88306032D01*
X96231044Y-88100731D01*
X96264835Y-88076201D01*
X96297537Y-88052507D01*
X96328909Y-88029820D01*
X96358714Y-88008311D01*
X96386711Y-87988152D01*
X96412663Y-87969513D01*
X96436329Y-87952565D01*
X96457470Y-87937480D01*
X96475848Y-87924429D01*
X96491223Y-87913582D01*
X96503356Y-87905111D01*
X96512009Y-87899186D01*
X96516942Y-87895979D01*
X96518021Y-87895430D01*
X96521001Y-87896871D01*
G37*
X96521001Y-87896871D02*
X96527439Y-87900923D01*
X96536779Y-87907183D01*
X96548461Y-87915245D01*
X96561928Y-87924707D01*
X96576622Y-87935162D01*
X96591984Y-87946207D01*
X96607457Y-87957438D01*
X96622483Y-87968449D01*
X96636504Y-87978838D01*
X96648962Y-87988199D01*
X96659298Y-87996128D01*
X96666955Y-88002221D01*
X96671375Y-88006073D01*
X96672247Y-88007190D01*
X96670223Y-88008929D01*
X96664295Y-88013496D01*
X96654671Y-88020736D01*
X96641561Y-88030498D01*
X96625174Y-88042627D01*
X96605719Y-88056971D01*
X96583405Y-88073375D01*
X96558442Y-88091687D01*
X96531037Y-88111753D01*
X96501402Y-88133421D01*
X96469743Y-88156535D01*
X96436272Y-88180944D01*
X96401196Y-88206494D01*
X96364724Y-88233032D01*
X96327067Y-88260404D01*
X96315493Y-88268810D01*
X96277445Y-88296442D01*
X96240468Y-88323293D01*
X96204772Y-88349211D01*
X96170572Y-88374040D01*
X96138081Y-88397626D01*
X96107511Y-88419814D01*
X96079075Y-88440451D01*
X96052985Y-88459382D01*
X96029456Y-88476452D01*
X96008699Y-88491507D01*
X95990927Y-88504392D01*
X95976354Y-88514953D01*
X95965192Y-88523036D01*
X95957654Y-88528486D01*
X95953952Y-88531149D01*
X95953630Y-88531375D01*
X95952417Y-88532123D01*
X95951412Y-88532285D01*
X95950595Y-88531437D01*
X95949947Y-88529156D01*
X95949449Y-88525019D01*
X95949081Y-88518601D01*
X95948823Y-88509478D01*
X95948655Y-88497228D01*
X95948559Y-88481427D01*
X95948514Y-88461651D01*
X95948500Y-88437475D01*
X95948499Y-88420446D01*
X95948500Y-88306032D01*
X96231044Y-88100731D01*
X96264835Y-88076201D01*
X96297537Y-88052507D01*
X96328909Y-88029820D01*
X96358714Y-88008311D01*
X96386711Y-87988152D01*
X96412663Y-87969513D01*
X96436329Y-87952565D01*
X96457470Y-87937480D01*
X96475848Y-87924429D01*
X96491223Y-87913582D01*
X96503356Y-87905111D01*
X96512009Y-87899186D01*
X96516942Y-87895979D01*
X96518021Y-87895430D01*
X96521001Y-87896871D01*
G36*
X97619820Y-89169240D02*
G01*
X95948500Y-89169240D01*
X95948500Y-88948260D01*
X97619820Y-88948260D01*
X97619820Y-89169240D01*
G37*
X97619820Y-89169240D02*
X95948500Y-89169240D01*
X95948500Y-88948260D01*
X97619820Y-88948260D01*
X97619820Y-89169240D01*
G36*
X96883220Y-94007940D02*
G01*
X97226120Y-94007940D01*
X97226120Y-94228920D01*
X96659700Y-94228920D01*
X96659700Y-93248480D01*
X96883220Y-93248480D01*
X96883220Y-94007940D01*
G37*
X96883220Y-94007940D02*
X97226120Y-94007940D01*
X97226120Y-94228920D01*
X96659700Y-94228920D01*
X96659700Y-93248480D01*
X96883220Y-93248480D01*
X96883220Y-94007940D01*
G36*
X97226120Y-95826580D02*
G01*
X95951040Y-95826580D01*
X95951040Y-95605600D01*
X97226120Y-95605600D01*
X97226120Y-95826580D01*
G37*
X97226120Y-95826580D02*
X95951040Y-95826580D01*
X95951040Y-95605600D01*
X97226120Y-95605600D01*
X97226120Y-95826580D01*
G36*
X96373183Y-87364852D02*
G01*
X96414298Y-87394936D01*
X96454325Y-87424213D01*
X96493069Y-87452542D01*
X96530338Y-87479783D01*
X96565940Y-87505794D01*
X96599680Y-87530434D01*
X96631366Y-87553564D01*
X96660806Y-87575043D01*
X96687806Y-87594729D01*
X96712172Y-87612482D01*
X96733713Y-87628161D01*
X96752236Y-87641626D01*
X96767546Y-87652735D01*
X96779452Y-87661349D01*
X96787760Y-87667326D01*
X96792277Y-87670526D01*
X96793087Y-87671054D01*
X96795269Y-87669593D01*
X96801370Y-87665293D01*
X96811192Y-87658297D01*
X96824541Y-87648744D01*
X96841220Y-87636776D01*
X96861032Y-87622535D01*
X96883783Y-87606162D01*
X96909275Y-87587798D01*
X96937314Y-87567584D01*
X96967701Y-87545663D01*
X97000243Y-87522175D01*
X97034742Y-87497261D01*
X97071003Y-87471062D01*
X97108829Y-87443721D01*
X97148025Y-87415378D01*
X97188395Y-87386175D01*
X97204766Y-87374329D01*
X97245564Y-87344810D01*
X97285274Y-87316087D01*
X97323701Y-87288301D01*
X97360647Y-87261595D01*
X97395916Y-87236111D01*
X97429310Y-87211990D01*
X97460635Y-87189374D01*
X97489692Y-87168405D01*
X97516285Y-87149225D01*
X97540218Y-87131975D01*
X97561293Y-87116798D01*
X97579315Y-87103836D01*
X97594086Y-87093230D01*
X97605411Y-87085122D01*
X97613091Y-87079654D01*
X97616932Y-87076967D01*
X97617347Y-87076704D01*
X97617981Y-87078984D01*
X97618522Y-87086178D01*
X97618969Y-87098122D01*
X97619317Y-87114651D01*
X97619563Y-87135600D01*
X97619703Y-87160804D01*
X97619734Y-87189734D01*
X97619649Y-87303610D01*
X97285780Y-87544910D01*
X97249037Y-87571474D01*
X97213426Y-87597235D01*
X97179163Y-87622035D01*
X97146466Y-87645717D01*
X97115550Y-87668124D01*
X97086632Y-87689098D01*
X97059929Y-87708483D01*
X97035658Y-87726120D01*
X97014034Y-87741853D01*
X96995274Y-87755525D01*
X96979596Y-87766977D01*
X96967215Y-87776052D01*
X96958347Y-87782594D01*
X96953211Y-87786444D01*
X96951933Y-87787480D01*
X96953950Y-87789094D01*
X96959854Y-87793545D01*
X96969427Y-87800676D01*
X96982455Y-87810326D01*
X96998722Y-87822339D01*
X97018010Y-87836553D01*
X97040106Y-87852812D01*
X97064791Y-87870956D01*
X97091851Y-87890827D01*
X97121070Y-87912266D01*
X97152231Y-87935113D01*
X97185119Y-87959211D01*
X97219518Y-87984400D01*
X97255211Y-88010523D01*
X97283644Y-88031320D01*
X97320214Y-88058075D01*
X97355667Y-88084035D01*
X97389786Y-88109039D01*
X97422355Y-88132928D01*
X97453156Y-88155542D01*
X97481973Y-88176721D01*
X97508589Y-88196307D01*
X97532787Y-88214137D01*
X97554350Y-88230054D01*
X97573061Y-88243898D01*
X97588704Y-88255507D01*
X97601061Y-88264724D01*
X97609916Y-88271387D01*
X97615051Y-88275338D01*
X97616335Y-88276430D01*
X97616529Y-88279426D01*
X97616680Y-88286975D01*
X97616789Y-88298550D01*
X97616853Y-88313625D01*
X97616870Y-88331673D01*
X97616839Y-88352167D01*
X97616759Y-88374581D01*
X97616672Y-88391352D01*
X97616010Y-88503733D01*
X96787970Y-87897775D01*
X96729907Y-87855283D01*
X96672878Y-87813543D01*
X96617019Y-87772657D01*
X96562469Y-87732724D01*
X96509363Y-87693846D01*
X96457839Y-87656122D01*
X96408036Y-87619653D01*
X96360089Y-87584541D01*
X96314136Y-87550885D01*
X96270314Y-87518786D01*
X96228761Y-87488345D01*
X96189614Y-87459662D01*
X96153011Y-87432838D01*
X96119087Y-87407973D01*
X96087981Y-87385168D01*
X96059831Y-87364523D01*
X96034772Y-87346140D01*
X96012943Y-87330118D01*
X95994481Y-87316559D01*
X95979522Y-87305563D01*
X95968205Y-87297229D01*
X95960667Y-87291660D01*
X95957044Y-87288955D01*
X95956728Y-87288706D01*
X95955936Y-87286871D01*
X95955292Y-87282807D01*
X95954789Y-87276140D01*
X95954418Y-87266496D01*
X95954171Y-87253503D01*
X95954039Y-87236788D01*
X95954016Y-87215976D01*
X95954092Y-87190696D01*
X95954188Y-87172150D01*
X95954850Y-87058704D01*
X96373183Y-87364852D01*
G37*
X96373183Y-87364852D02*
X96414298Y-87394936D01*
X96454325Y-87424213D01*
X96493069Y-87452542D01*
X96530338Y-87479783D01*
X96565940Y-87505794D01*
X96599680Y-87530434D01*
X96631366Y-87553564D01*
X96660806Y-87575043D01*
X96687806Y-87594729D01*
X96712172Y-87612482D01*
X96733713Y-87628161D01*
X96752236Y-87641626D01*
X96767546Y-87652735D01*
X96779452Y-87661349D01*
X96787760Y-87667326D01*
X96792277Y-87670526D01*
X96793087Y-87671054D01*
X96795269Y-87669593D01*
X96801370Y-87665293D01*
X96811192Y-87658297D01*
X96824541Y-87648744D01*
X96841220Y-87636776D01*
X96861032Y-87622535D01*
X96883783Y-87606162D01*
X96909275Y-87587798D01*
X96937314Y-87567584D01*
X96967701Y-87545663D01*
X97000243Y-87522175D01*
X97034742Y-87497261D01*
X97071003Y-87471062D01*
X97108829Y-87443721D01*
X97148025Y-87415378D01*
X97188395Y-87386175D01*
X97204766Y-87374329D01*
X97245564Y-87344810D01*
X97285274Y-87316087D01*
X97323701Y-87288301D01*
X97360647Y-87261595D01*
X97395916Y-87236111D01*
X97429310Y-87211990D01*
X97460635Y-87189374D01*
X97489692Y-87168405D01*
X97516285Y-87149225D01*
X97540218Y-87131975D01*
X97561293Y-87116798D01*
X97579315Y-87103836D01*
X97594086Y-87093230D01*
X97605411Y-87085122D01*
X97613091Y-87079654D01*
X97616932Y-87076967D01*
X97617347Y-87076704D01*
X97617981Y-87078984D01*
X97618522Y-87086178D01*
X97618969Y-87098122D01*
X97619317Y-87114651D01*
X97619563Y-87135600D01*
X97619703Y-87160804D01*
X97619734Y-87189734D01*
X97619649Y-87303610D01*
X97285780Y-87544910D01*
X97249037Y-87571474D01*
X97213426Y-87597235D01*
X97179163Y-87622035D01*
X97146466Y-87645717D01*
X97115550Y-87668124D01*
X97086632Y-87689098D01*
X97059929Y-87708483D01*
X97035658Y-87726120D01*
X97014034Y-87741853D01*
X96995274Y-87755525D01*
X96979596Y-87766977D01*
X96967215Y-87776052D01*
X96958347Y-87782594D01*
X96953211Y-87786444D01*
X96951933Y-87787480D01*
X96953950Y-87789094D01*
X96959854Y-87793545D01*
X96969427Y-87800676D01*
X96982455Y-87810326D01*
X96998722Y-87822339D01*
X97018010Y-87836553D01*
X97040106Y-87852812D01*
X97064791Y-87870956D01*
X97091851Y-87890827D01*
X97121070Y-87912266D01*
X97152231Y-87935113D01*
X97185119Y-87959211D01*
X97219518Y-87984400D01*
X97255211Y-88010523D01*
X97283644Y-88031320D01*
X97320214Y-88058075D01*
X97355667Y-88084035D01*
X97389786Y-88109039D01*
X97422355Y-88132928D01*
X97453156Y-88155542D01*
X97481973Y-88176721D01*
X97508589Y-88196307D01*
X97532787Y-88214137D01*
X97554350Y-88230054D01*
X97573061Y-88243898D01*
X97588704Y-88255507D01*
X97601061Y-88264724D01*
X97609916Y-88271387D01*
X97615051Y-88275338D01*
X97616335Y-88276430D01*
X97616529Y-88279426D01*
X97616680Y-88286975D01*
X97616789Y-88298550D01*
X97616853Y-88313625D01*
X97616870Y-88331673D01*
X97616839Y-88352167D01*
X97616759Y-88374581D01*
X97616672Y-88391352D01*
X97616010Y-88503733D01*
X96787970Y-87897775D01*
X96729907Y-87855283D01*
X96672878Y-87813543D01*
X96617019Y-87772657D01*
X96562469Y-87732724D01*
X96509363Y-87693846D01*
X96457839Y-87656122D01*
X96408036Y-87619653D01*
X96360089Y-87584541D01*
X96314136Y-87550885D01*
X96270314Y-87518786D01*
X96228761Y-87488345D01*
X96189614Y-87459662D01*
X96153011Y-87432838D01*
X96119087Y-87407973D01*
X96087981Y-87385168D01*
X96059831Y-87364523D01*
X96034772Y-87346140D01*
X96012943Y-87330118D01*
X95994481Y-87316559D01*
X95979522Y-87305563D01*
X95968205Y-87297229D01*
X95960667Y-87291660D01*
X95957044Y-87288955D01*
X95956728Y-87288706D01*
X95955936Y-87286871D01*
X95955292Y-87282807D01*
X95954789Y-87276140D01*
X95954418Y-87266496D01*
X95954171Y-87253503D01*
X95954039Y-87236788D01*
X95954016Y-87215976D01*
X95954092Y-87190696D01*
X95954188Y-87172150D01*
X95954850Y-87058704D01*
X96373183Y-87364852D01*
G36*
X97236864Y-91291350D02*
G01*
X97242246Y-91293764D01*
X97250130Y-91298171D01*
X97261022Y-91304839D01*
X97275432Y-91314037D01*
X97280730Y-91317468D01*
X97331247Y-91353255D01*
X97378456Y-91392767D01*
X97422181Y-91435747D01*
X97462245Y-91481939D01*
X97498473Y-91531085D01*
X97530690Y-91582929D01*
X97558719Y-91637214D01*
X97582386Y-91693683D01*
X97601513Y-91752078D01*
X97614608Y-91805614D01*
X97618715Y-91826549D01*
X97621937Y-91845693D01*
X97624387Y-91864214D01*
X97626177Y-91883279D01*
X97627419Y-91904056D01*
X97628226Y-91927714D01*
X97628665Y-91951810D01*
X97628860Y-91970035D01*
X97628960Y-91986929D01*
X97628966Y-92001719D01*
X97628880Y-92013633D01*
X97628704Y-92021897D01*
X97628485Y-92025470D01*
X97627741Y-92031358D01*
X97626630Y-92040690D01*
X97625341Y-92051862D01*
X97624735Y-92057220D01*
X97616047Y-92112997D01*
X97602574Y-92168993D01*
X97584545Y-92224599D01*
X97562188Y-92279206D01*
X97535731Y-92332203D01*
X97505401Y-92382981D01*
X97499955Y-92391230D01*
X97479098Y-92421202D01*
X97458653Y-92447956D01*
X97437317Y-92473058D01*
X97413790Y-92498073D01*
X97398501Y-92513282D01*
X97351656Y-92555480D01*
X97302179Y-92593384D01*
X97250236Y-92626914D01*
X97195994Y-92655986D01*
X97139618Y-92680518D01*
X97081274Y-92700426D01*
X97021129Y-92715629D01*
X96975477Y-92723813D01*
X96966261Y-92725020D01*
X96953810Y-92726423D01*
X96939307Y-92727913D01*
X96923937Y-92729382D01*
X96908885Y-92730719D01*
X96895334Y-92731815D01*
X96884470Y-92732562D01*
X96877505Y-92732850D01*
X96877107Y-92730398D01*
X96876738Y-92723379D01*
X96876405Y-92712308D01*
X96876119Y-92697696D01*
X96875886Y-92680059D01*
X96875717Y-92659909D01*
X96875620Y-92637759D01*
X96875600Y-92621481D01*
X96875600Y-92510101D01*
X96909255Y-92508598D01*
X96958642Y-92503880D01*
X97007391Y-92494286D01*
X97055126Y-92480012D01*
X97101472Y-92461257D01*
X97146055Y-92438216D01*
X97188500Y-92411087D01*
X97228432Y-92380067D01*
X97265476Y-92345352D01*
X97299258Y-92307140D01*
X97304066Y-92301060D01*
X97332193Y-92260962D01*
X97356754Y-92217655D01*
X97377491Y-92171786D01*
X97394147Y-92124001D01*
X97406466Y-92074946D01*
X97414191Y-92025267D01*
X97414331Y-92023939D01*
X97415812Y-92002583D01*
X97416277Y-91977988D01*
X97415784Y-91951830D01*
X97414393Y-91925784D01*
X97412161Y-91901525D01*
X97409369Y-91881960D01*
X97397968Y-91831580D01*
X97382011Y-91782829D01*
X97361722Y-91736027D01*
X97337326Y-91691494D01*
X97309050Y-91649553D01*
X97277119Y-91610523D01*
X97241757Y-91574725D01*
X97203189Y-91542479D01*
X97161642Y-91514107D01*
X97143570Y-91503541D01*
X97135866Y-91499236D01*
X97130162Y-91496023D01*
X97127660Y-91494581D01*
X97127648Y-91494572D01*
X97128589Y-91492282D01*
X97131586Y-91486034D01*
X97136356Y-91476378D01*
X97142617Y-91463866D01*
X97150087Y-91449050D01*
X97158484Y-91432482D01*
X97167526Y-91414712D01*
X97176930Y-91396291D01*
X97186414Y-91377773D01*
X97195697Y-91359708D01*
X97204496Y-91342647D01*
X97212530Y-91327143D01*
X97219515Y-91313746D01*
X97225170Y-91303008D01*
X97229212Y-91295481D01*
X97231360Y-91291716D01*
X97231574Y-91291421D01*
X97233476Y-91290658D01*
X97236864Y-91291350D01*
G37*
X97236864Y-91291350D02*
X97242246Y-91293764D01*
X97250130Y-91298171D01*
X97261022Y-91304839D01*
X97275432Y-91314037D01*
X97280730Y-91317468D01*
X97331247Y-91353255D01*
X97378456Y-91392767D01*
X97422181Y-91435747D01*
X97462245Y-91481939D01*
X97498473Y-91531085D01*
X97530690Y-91582929D01*
X97558719Y-91637214D01*
X97582386Y-91693683D01*
X97601513Y-91752078D01*
X97614608Y-91805614D01*
X97618715Y-91826549D01*
X97621937Y-91845693D01*
X97624387Y-91864214D01*
X97626177Y-91883279D01*
X97627419Y-91904056D01*
X97628226Y-91927714D01*
X97628665Y-91951810D01*
X97628860Y-91970035D01*
X97628960Y-91986929D01*
X97628966Y-92001719D01*
X97628880Y-92013633D01*
X97628704Y-92021897D01*
X97628485Y-92025470D01*
X97627741Y-92031358D01*
X97626630Y-92040690D01*
X97625341Y-92051862D01*
X97624735Y-92057220D01*
X97616047Y-92112997D01*
X97602574Y-92168993D01*
X97584545Y-92224599D01*
X97562188Y-92279206D01*
X97535731Y-92332203D01*
X97505401Y-92382981D01*
X97499955Y-92391230D01*
X97479098Y-92421202D01*
X97458653Y-92447956D01*
X97437317Y-92473058D01*
X97413790Y-92498073D01*
X97398501Y-92513282D01*
X97351656Y-92555480D01*
X97302179Y-92593384D01*
X97250236Y-92626914D01*
X97195994Y-92655986D01*
X97139618Y-92680518D01*
X97081274Y-92700426D01*
X97021129Y-92715629D01*
X96975477Y-92723813D01*
X96966261Y-92725020D01*
X96953810Y-92726423D01*
X96939307Y-92727913D01*
X96923937Y-92729382D01*
X96908885Y-92730719D01*
X96895334Y-92731815D01*
X96884470Y-92732562D01*
X96877505Y-92732850D01*
X96877107Y-92730398D01*
X96876738Y-92723379D01*
X96876405Y-92712308D01*
X96876119Y-92697696D01*
X96875886Y-92680059D01*
X96875717Y-92659909D01*
X96875620Y-92637759D01*
X96875600Y-92621481D01*
X96875600Y-92510101D01*
X96909255Y-92508598D01*
X96958642Y-92503880D01*
X97007391Y-92494286D01*
X97055126Y-92480012D01*
X97101472Y-92461257D01*
X97146055Y-92438216D01*
X97188500Y-92411087D01*
X97228432Y-92380067D01*
X97265476Y-92345352D01*
X97299258Y-92307140D01*
X97304066Y-92301060D01*
X97332193Y-92260962D01*
X97356754Y-92217655D01*
X97377491Y-92171786D01*
X97394147Y-92124001D01*
X97406466Y-92074946D01*
X97414191Y-92025267D01*
X97414331Y-92023939D01*
X97415812Y-92002583D01*
X97416277Y-91977988D01*
X97415784Y-91951830D01*
X97414393Y-91925784D01*
X97412161Y-91901525D01*
X97409369Y-91881960D01*
X97397968Y-91831580D01*
X97382011Y-91782829D01*
X97361722Y-91736027D01*
X97337326Y-91691494D01*
X97309050Y-91649553D01*
X97277119Y-91610523D01*
X97241757Y-91574725D01*
X97203189Y-91542479D01*
X97161642Y-91514107D01*
X97143570Y-91503541D01*
X97135866Y-91499236D01*
X97130162Y-91496023D01*
X97127660Y-91494581D01*
X97127648Y-91494572D01*
X97128589Y-91492282D01*
X97131586Y-91486034D01*
X97136356Y-91476378D01*
X97142617Y-91463866D01*
X97150087Y-91449050D01*
X97158484Y-91432482D01*
X97167526Y-91414712D01*
X97176930Y-91396291D01*
X97186414Y-91377773D01*
X97195697Y-91359708D01*
X97204496Y-91342647D01*
X97212530Y-91327143D01*
X97219515Y-91313746D01*
X97225170Y-91303008D01*
X97229212Y-91295481D01*
X97231360Y-91291716D01*
X97231574Y-91291421D01*
X97233476Y-91290658D01*
X97236864Y-91291350D01*
G36*
X97619820Y-90416380D02*
G01*
X96337120Y-90416380D01*
X96337120Y-90195400D01*
X97619820Y-90195400D01*
X97619820Y-90416380D01*
G37*
X97619820Y-90416380D02*
X96337120Y-90416380D01*
X96337120Y-90195400D01*
X97619820Y-90195400D01*
X97619820Y-90416380D01*
G36*
X97627440Y-94226380D02*
G01*
X97403920Y-94226380D01*
X97403920Y-93134180D01*
X97627440Y-93134180D01*
X97627440Y-94226380D01*
G37*
X97627440Y-94226380D02*
X97403920Y-94226380D01*
X97403920Y-93134180D01*
X97627440Y-93134180D01*
X97627440Y-94226380D01*
G36*
X96322046Y-91327073D02*
G01*
X96323794Y-91329384D01*
X96327936Y-91335416D01*
X96334116Y-91344624D01*
X96341976Y-91356459D01*
X96351159Y-91370373D01*
X96361308Y-91385819D01*
X96372066Y-91402250D01*
X96383075Y-91419117D01*
X96393979Y-91435873D01*
X96404419Y-91451971D01*
X96414039Y-91466862D01*
X96422482Y-91480000D01*
X96429390Y-91490835D01*
X96434407Y-91498822D01*
X96437174Y-91503412D01*
X96437584Y-91504206D01*
X96436718Y-91507032D01*
X96432095Y-91511095D01*
X96423339Y-91516695D01*
X96417914Y-91519816D01*
X96390428Y-91536911D01*
X96362002Y-91557573D01*
X96333852Y-91580771D01*
X96307197Y-91605472D01*
X96283254Y-91630644D01*
X96273140Y-91642520D01*
X96243172Y-91683154D01*
X96217127Y-91726753D01*
X96195226Y-91772804D01*
X96177690Y-91820792D01*
X96164740Y-91870203D01*
X96157813Y-91910548D01*
X96155768Y-91932054D01*
X96154722Y-91956779D01*
X96154637Y-91983240D01*
X96155480Y-92009955D01*
X96157214Y-92035443D01*
X96159804Y-92058221D01*
X96161603Y-92069174D01*
X96173608Y-92119714D01*
X96190099Y-92168225D01*
X96210857Y-92214466D01*
X96235666Y-92258196D01*
X96264308Y-92299174D01*
X96296566Y-92337159D01*
X96332223Y-92371910D01*
X96371062Y-92403186D01*
X96412864Y-92430748D01*
X96457413Y-92454352D01*
X96504492Y-92473760D01*
X96535621Y-92483801D01*
X96580052Y-92494444D01*
X96626105Y-92501072D01*
X96664145Y-92503568D01*
X96705420Y-92504972D01*
X96705420Y-92725969D01*
X96660335Y-92724493D01*
X96600765Y-92720049D01*
X96542219Y-92710761D01*
X96484945Y-92696804D01*
X96429192Y-92678357D01*
X96375206Y-92655595D01*
X96323239Y-92628694D01*
X96273537Y-92597832D01*
X96226349Y-92563184D01*
X96181923Y-92524927D01*
X96140510Y-92483238D01*
X96102355Y-92438292D01*
X96067709Y-92390267D01*
X96036820Y-92339339D01*
X96009936Y-92285684D01*
X95996046Y-92252800D01*
X95977465Y-92199923D01*
X95962763Y-92145211D01*
X95951716Y-92087795D01*
X95949434Y-92072460D01*
X95947688Y-92056281D01*
X95946339Y-92036218D01*
X95945399Y-92013456D01*
X95944875Y-91989175D01*
X95944777Y-91964559D01*
X95945115Y-91940791D01*
X95945898Y-91919051D01*
X95947135Y-91900524D01*
X95948013Y-91892120D01*
X95958111Y-91830464D01*
X95972858Y-91770518D01*
X95992120Y-91712498D01*
X96015760Y-91656620D01*
X96043642Y-91603099D01*
X96075632Y-91552150D01*
X96111592Y-91503988D01*
X96151388Y-91458829D01*
X96194884Y-91416889D01*
X96241944Y-91378383D01*
X96292433Y-91343525D01*
X96294462Y-91342247D01*
X96304604Y-91336050D01*
X96313176Y-91331127D01*
X96319284Y-91327968D01*
X96322034Y-91327067D01*
X96322046Y-91327073D01*
G37*
X96322046Y-91327073D02*
X96323794Y-91329384D01*
X96327936Y-91335416D01*
X96334116Y-91344624D01*
X96341976Y-91356459D01*
X96351159Y-91370373D01*
X96361308Y-91385819D01*
X96372066Y-91402250D01*
X96383075Y-91419117D01*
X96393979Y-91435873D01*
X96404419Y-91451971D01*
X96414039Y-91466862D01*
X96422482Y-91480000D01*
X96429390Y-91490835D01*
X96434407Y-91498822D01*
X96437174Y-91503412D01*
X96437584Y-91504206D01*
X96436718Y-91507032D01*
X96432095Y-91511095D01*
X96423339Y-91516695D01*
X96417914Y-91519816D01*
X96390428Y-91536911D01*
X96362002Y-91557573D01*
X96333852Y-91580771D01*
X96307197Y-91605472D01*
X96283254Y-91630644D01*
X96273140Y-91642520D01*
X96243172Y-91683154D01*
X96217127Y-91726753D01*
X96195226Y-91772804D01*
X96177690Y-91820792D01*
X96164740Y-91870203D01*
X96157813Y-91910548D01*
X96155768Y-91932054D01*
X96154722Y-91956779D01*
X96154637Y-91983240D01*
X96155480Y-92009955D01*
X96157214Y-92035443D01*
X96159804Y-92058221D01*
X96161603Y-92069174D01*
X96173608Y-92119714D01*
X96190099Y-92168225D01*
X96210857Y-92214466D01*
X96235666Y-92258196D01*
X96264308Y-92299174D01*
X96296566Y-92337159D01*
X96332223Y-92371910D01*
X96371062Y-92403186D01*
X96412864Y-92430748D01*
X96457413Y-92454352D01*
X96504492Y-92473760D01*
X96535621Y-92483801D01*
X96580052Y-92494444D01*
X96626105Y-92501072D01*
X96664145Y-92503568D01*
X96705420Y-92504972D01*
X96705420Y-92725969D01*
X96660335Y-92724493D01*
X96600765Y-92720049D01*
X96542219Y-92710761D01*
X96484945Y-92696804D01*
X96429192Y-92678357D01*
X96375206Y-92655595D01*
X96323239Y-92628694D01*
X96273537Y-92597832D01*
X96226349Y-92563184D01*
X96181923Y-92524927D01*
X96140510Y-92483238D01*
X96102355Y-92438292D01*
X96067709Y-92390267D01*
X96036820Y-92339339D01*
X96009936Y-92285684D01*
X95996046Y-92252800D01*
X95977465Y-92199923D01*
X95962763Y-92145211D01*
X95951716Y-92087795D01*
X95949434Y-92072460D01*
X95947688Y-92056281D01*
X95946339Y-92036218D01*
X95945399Y-92013456D01*
X95944875Y-91989175D01*
X95944777Y-91964559D01*
X95945115Y-91940791D01*
X95945898Y-91919051D01*
X95947135Y-91900524D01*
X95948013Y-91892120D01*
X95958111Y-91830464D01*
X95972858Y-91770518D01*
X95992120Y-91712498D01*
X96015760Y-91656620D01*
X96043642Y-91603099D01*
X96075632Y-91552150D01*
X96111592Y-91503988D01*
X96151388Y-91458829D01*
X96194884Y-91416889D01*
X96241944Y-91378383D01*
X96292433Y-91343525D01*
X96294462Y-91342247D01*
X96304604Y-91336050D01*
X96313176Y-91331127D01*
X96319284Y-91327968D01*
X96322034Y-91327067D01*
X96322046Y-91327073D01*
G36*
X96169480Y-90985340D02*
G01*
X95948500Y-90985340D01*
X95948500Y-89616280D01*
X96169480Y-89616280D01*
X96169480Y-90985340D01*
G37*
X96169480Y-90985340D02*
X95948500Y-90985340D01*
X95948500Y-89616280D01*
X96169480Y-89616280D01*
X96169480Y-90985340D01*
G36*
X97627440Y-95826580D02*
G01*
X97403920Y-95826580D01*
X97403920Y-94678500D01*
X97627440Y-94678500D01*
X97627440Y-95826580D01*
G37*
X97627440Y-95826580D02*
X97403920Y-95826580D01*
X97403920Y-94678500D01*
X97627440Y-94678500D01*
X97627440Y-95826580D01*
G04 #@! TD*
D11*
G04 #@! TO.P,D1,1,K*
G04 #@! TO.N,/S*
X99060000Y-84580000D03*
G04 #@! TO.P,D1,2,A*
G04 #@! TO.N,Net-(D1-Pad2)*
X99060000Y-81280000D03*
G04 #@! TD*
G04 #@! TO.P,D2,1,K*
G04 #@! TO.N,/R*
X101600000Y-84580000D03*
G04 #@! TO.P,D2,2,A*
G04 #@! TO.N,Net-(D1-Pad2)*
X101600000Y-81280000D03*
G04 #@! TD*
D12*
G04 #@! TO.P,J2,1,Pin_1*
G04 #@! TO.N,/R1*
X104140000Y-93980000D03*
D13*
G04 #@! TO.P,J2,2,Pin_2*
G04 #@! TO.N,/C1*
X109220000Y-93980000D03*
G04 #@! TO.P,J2,3,Pin_3*
G04 #@! TO.N,/S1*
X114300000Y-93980000D03*
G04 #@! TD*
D12*
G04 #@! TO.P,J3,1,Pin_1*
G04 #@! TO.N,/S2*
X114300000Y-71120000D03*
D13*
G04 #@! TO.P,J3,2,Pin_2*
G04 #@! TO.N,/C2*
X109220000Y-71120000D03*
G04 #@! TO.P,J3,3,Pin_3*
G04 #@! TO.N,/R2*
X104140000Y-71120000D03*
G04 #@! TD*
D14*
G04 #@! TO.P,K1,1*
G04 #@! TO.N,/S*
X104267000Y-86487000D03*
D15*
G04 #@! TO.P,K1,2*
G04 #@! TO.N,/R*
X106807000Y-86487000D03*
G04 #@! TO.P,K1,4*
G04 #@! TO.N,/C1*
X111887000Y-86487000D03*
G04 #@! TO.P,K1,6*
G04 #@! TO.N,/R1*
X116967000Y-86487000D03*
G04 #@! TO.P,K1,8*
G04 #@! TO.N,/S1*
X122047000Y-86487000D03*
G04 #@! TO.P,K1,9*
G04 #@! TO.N,/S2*
X122047000Y-78867000D03*
G04 #@! TO.P,K1,11*
G04 #@! TO.N,/R2*
X116967000Y-78867000D03*
G04 #@! TO.P,K1,13*
G04 #@! TO.N,/C2*
X111887000Y-78867000D03*
G04 #@! TO.P,K1,15*
G04 #@! TO.N,Net-(D1-Pad2)*
X106807000Y-78867000D03*
G04 #@! TO.P,K1,16*
X104267000Y-78867000D03*
G04 #@! TD*
D12*
G04 #@! TO.P,J1,1,Pin_1*
G04 #@! TO.N,/R*
X90170000Y-77470000D03*
D13*
G04 #@! TO.P,J1,2,Pin_2*
G04 #@! TO.N,/C*
X90170000Y-82550000D03*
G04 #@! TO.P,J1,3,Pin_3*
G04 #@! TO.N,/S*
X90170000Y-87630000D03*
G04 #@! TD*
D16*
G04 #@! TO.P,R1,1*
G04 #@! TO.N,Net-(D1-Pad2)*
X97125000Y-82550000D03*
G04 #@! TO.P,R1,2*
G04 #@! TO.N,/C*
X95250000Y-82550000D03*
G04 #@! TD*
D11*
G04 #@! TO.P,D3,1,K*
G04 #@! TO.N,/S*
X124900000Y-84580000D03*
G04 #@! TO.P,D3,2,A*
G04 #@! TO.N,Net-(D1-Pad2)*
X124900000Y-81280000D03*
G04 #@! TD*
D14*
G04 #@! TO.P,K2,1*
G04 #@! TO.N,/S*
X130094688Y-86487000D03*
D15*
G04 #@! TO.P,K2,2*
G04 #@! TO.N,/R*
X132634688Y-86487000D03*
G04 #@! TO.P,K2,4*
G04 #@! TO.N,/C3*
X137714688Y-86487000D03*
G04 #@! TO.P,K2,6*
G04 #@! TO.N,/R3*
X142794688Y-86487000D03*
G04 #@! TO.P,K2,8*
G04 #@! TO.N,/S3*
X147874688Y-86487000D03*
G04 #@! TO.P,K2,9*
G04 #@! TO.N,/S4*
X147874688Y-78867000D03*
G04 #@! TO.P,K2,11*
G04 #@! TO.N,/R4*
X142794688Y-78867000D03*
G04 #@! TO.P,K2,13*
G04 #@! TO.N,/C4*
X137714688Y-78867000D03*
G04 #@! TO.P,K2,15*
G04 #@! TO.N,Net-(D1-Pad2)*
X132634688Y-78867000D03*
G04 #@! TO.P,K2,16*
X130094688Y-78867000D03*
G04 #@! TD*
D12*
G04 #@! TO.P,J5,1,Pin_1*
G04 #@! TO.N,/S4*
X137160000Y-71755000D03*
D13*
G04 #@! TO.P,J5,2,Pin_2*
G04 #@! TO.N,/C4*
X132080000Y-71755000D03*
G04 #@! TO.P,J5,3,Pin_3*
G04 #@! TO.N,/R4*
X127000000Y-71755000D03*
G04 #@! TD*
D12*
G04 #@! TO.P,J4,1,Pin_1*
G04 #@! TO.N,/R3*
X127000000Y-93980000D03*
D13*
G04 #@! TO.P,J4,2,Pin_2*
G04 #@! TO.N,/C3*
X132080000Y-93980000D03*
G04 #@! TO.P,J4,3,Pin_3*
G04 #@! TO.N,/S3*
X137160000Y-93980000D03*
G04 #@! TD*
D11*
G04 #@! TO.P,D4,1,K*
G04 #@! TO.N,/R*
X127300000Y-84580000D03*
G04 #@! TO.P,D4,2,A*
G04 #@! TO.N,Net-(D1-Pad2)*
X127300000Y-81280000D03*
G04 #@! TD*
D17*
G04 #@! TO.N,Net-(D1-Pad2)*
X106807000Y-78867000D02*
X106807000Y-79121000D01*
X101854000Y-80264000D02*
X101600000Y-80518000D01*
X124900000Y-81280000D02*
X124900000Y-82355000D01*
X106807000Y-79121000D02*
X105664000Y-80264000D01*
X101346000Y-82550000D02*
X101600000Y-82296000D01*
X97125000Y-82550000D02*
X99060000Y-82550000D01*
X127300000Y-82250000D02*
X127000000Y-82550000D01*
X124784998Y-82239998D02*
X101656002Y-82239998D01*
X104267000Y-78867000D02*
X99695000Y-78867000D01*
X124900000Y-79951000D02*
X124900000Y-81280000D01*
X101600000Y-82296000D02*
X101600000Y-81280000D01*
X124900000Y-82355000D02*
X125095000Y-82550000D01*
X127762000Y-80264000D02*
X129286000Y-80264000D01*
X127000000Y-82550000D02*
X125095000Y-82550000D01*
X129286000Y-80264000D02*
X129540000Y-80518000D01*
X99060000Y-79502000D02*
X99060000Y-81280000D01*
X125984000Y-78867000D02*
X124900000Y-79951000D01*
X130983688Y-80518000D02*
X132634688Y-78867000D01*
X105664000Y-80264000D02*
X101854000Y-80264000D01*
X127300000Y-80726000D02*
X127762000Y-80264000D01*
X127300000Y-81280000D02*
X127300000Y-80726000D01*
X99060000Y-81280000D02*
X99060000Y-82550000D01*
X99060000Y-82550000D02*
X101346000Y-82550000D01*
X101656002Y-82239998D02*
X101346000Y-82550000D01*
X129540000Y-80518000D02*
X130983688Y-80518000D01*
X99695000Y-78867000D02*
X99060000Y-79502000D01*
X130094688Y-78867000D02*
X125984000Y-78867000D01*
X125095000Y-82550000D02*
X124784998Y-82239998D01*
X101600000Y-80518000D02*
X101600000Y-81280000D01*
X127300000Y-81280000D02*
X127300000Y-82250000D01*
G04 #@! TO.N,/S*
X109982000Y-83566000D02*
X123886000Y-83566000D01*
X101219000Y-86487000D02*
X100584000Y-85852000D01*
X90170000Y-87630000D02*
X92456000Y-87630000D01*
X95506000Y-84580000D02*
X99060000Y-84580000D01*
X104267000Y-86487000D02*
X101219000Y-86487000D01*
X108331000Y-87122000D02*
X108331000Y-85217000D01*
X99314000Y-85852000D02*
X99060000Y-85598000D01*
X99060000Y-85598000D02*
X99060000Y-84580000D01*
X125603000Y-86487000D02*
X130094688Y-86487000D01*
X105567000Y-87787000D02*
X107666000Y-87787000D01*
X124900000Y-85784000D02*
X125603000Y-86487000D01*
X92456000Y-87630000D02*
X95506000Y-84580000D01*
X107666000Y-87787000D02*
X108331000Y-87122000D01*
X100584000Y-85852000D02*
X99314000Y-85852000D01*
X108331000Y-85217000D02*
X109982000Y-83566000D01*
X104267000Y-86487000D02*
X105567000Y-87787000D01*
X124900000Y-84580000D02*
X124900000Y-85784000D01*
X123886000Y-83566000D02*
X124900000Y-84580000D01*
G04 #@! TO.N,/R*
X124352822Y-83185000D02*
X124007321Y-82839499D01*
X106807000Y-85217000D02*
X106170000Y-84580000D01*
X96237490Y-83283490D02*
X96237490Y-78965490D01*
X131951000Y-84580000D02*
X127300000Y-84580000D01*
X101600000Y-84074000D02*
X100838000Y-83312000D01*
X94742000Y-77470000D02*
X90170000Y-77470000D01*
X97790000Y-83820000D02*
X96774000Y-83820000D01*
X96774000Y-83820000D02*
X96237490Y-83283490D01*
X124007321Y-82839499D02*
X107910501Y-82839499D01*
X101600000Y-84580000D02*
X101600000Y-84074000D01*
X106170000Y-84580000D02*
X101600000Y-84580000D01*
X125905000Y-83185000D02*
X124352822Y-83185000D01*
X106807000Y-86487000D02*
X106807000Y-85217000D01*
X100838000Y-83312000D02*
X98298000Y-83312000D01*
X132634688Y-85263688D02*
X131951000Y-84580000D01*
X132634688Y-86487000D02*
X132634688Y-85263688D01*
X127300000Y-84580000D02*
X125905000Y-83185000D01*
X98298000Y-83312000D02*
X97790000Y-83820000D01*
X107910501Y-82839499D02*
X106170000Y-84580000D01*
X96237490Y-78965490D02*
X94742000Y-77470000D01*
G04 #@! TO.N,/C*
X90170000Y-82550000D02*
X95250000Y-82550000D01*
D18*
G04 #@! TO.N,/S1*
X114300000Y-91694000D02*
X116840000Y-89154000D01*
X119380000Y-89154000D02*
X122047000Y-86487000D01*
X114300000Y-93980000D02*
X114300000Y-91694000D01*
X116840000Y-89154000D02*
X119380000Y-89154000D01*
G04 #@! TO.N,/C1*
X111887000Y-88265000D02*
X111887000Y-86487000D01*
X109220000Y-93980000D02*
X109220000Y-90932000D01*
X109220000Y-90932000D02*
X111887000Y-88265000D01*
G04 #@! TO.N,/S2*
X121539000Y-78867000D02*
X122047000Y-78867000D01*
X114300000Y-71120000D02*
X114300000Y-71628000D01*
X114300000Y-71628000D02*
X121539000Y-78867000D01*
G04 #@! TO.N,/C2*
X109220000Y-76200000D02*
X111887000Y-78867000D01*
X109220000Y-71120000D02*
X109220000Y-76200000D01*
G04 #@! TO.N,/C3*
X137714688Y-88345312D02*
X132080000Y-93980000D01*
X137714688Y-86487000D02*
X137714688Y-88345312D01*
G04 #@! TO.N,/S3*
X147874688Y-86487000D02*
X145334688Y-89027000D01*
X142113000Y-89027000D02*
X137160000Y-93980000D01*
X145334688Y-89027000D02*
X142113000Y-89027000D01*
G04 #@! TO.N,/C4*
X132080000Y-73232312D02*
X137714688Y-78867000D01*
X132080000Y-71755000D02*
X132080000Y-73232312D01*
G04 #@! TO.N,/S4*
X141732000Y-76327000D02*
X145334688Y-76327000D01*
X145334688Y-76327000D02*
X147874688Y-78867000D01*
X137160000Y-71755000D02*
X141732000Y-76327000D01*
G04 #@! TD*
M02*
