G04 #@! TF.GenerationSoftware,KiCad,Pcbnew,6.0.9-8da3e8f707~116~ubuntu20.04.1*
G04 #@! TF.CreationDate,2023-04-19T17:26:23+00:00*
G04 #@! TF.ProjectId,LEC022102,4c454330-3232-4313-9032-2e6b69636164,rev?*
G04 #@! TF.SameCoordinates,Original*
G04 #@! TF.FileFunction,Legend,Top*
G04 #@! TF.FilePolarity,Positive*
%FSLAX46Y46*%
G04 Gerber Fmt 4.6, Leading zero omitted, Abs format (unit mm)*
G04 Created by KiCad (PCBNEW 6.0.9-8da3e8f707~116~ubuntu20.04.1) date 2023-04-19 17:26:23*
%MOMM*%
%LPD*%
G01*
G04 APERTURE LIST*
%ADD10C,0.120000*%
%ADD11C,0.150000*%
%ADD12C,0.010000*%
G04 APERTURE END LIST*
D10*
X95377000Y-96266000D02*
X95377000Y-86741000D01*
X95377000Y-86741000D02*
X99949000Y-86741000D01*
X99949000Y-96266000D02*
X95377000Y-96266000D01*
X99949000Y-86741000D02*
X99949000Y-96266000D01*
D11*
G04 #@! TO.C,D1*
X99512380Y-79478095D02*
X98512380Y-79478095D01*
X98512380Y-79240000D01*
X98560000Y-79097142D01*
X98655238Y-79001904D01*
X98750476Y-78954285D01*
X98940952Y-78906666D01*
X99083809Y-78906666D01*
X99274285Y-78954285D01*
X99369523Y-79001904D01*
X99464761Y-79097142D01*
X99512380Y-79240000D01*
X99512380Y-79478095D01*
X99512380Y-77954285D02*
X99512380Y-78525714D01*
X99512380Y-78240000D02*
X98512380Y-78240000D01*
X98655238Y-78335238D01*
X98750476Y-78430476D01*
X98798095Y-78525714D01*
G04 #@! TO.C,D2*
X102052380Y-79478095D02*
X101052380Y-79478095D01*
X101052380Y-79240000D01*
X101100000Y-79097142D01*
X101195238Y-79001904D01*
X101290476Y-78954285D01*
X101480952Y-78906666D01*
X101623809Y-78906666D01*
X101814285Y-78954285D01*
X101909523Y-79001904D01*
X102004761Y-79097142D01*
X102052380Y-79240000D01*
X102052380Y-79478095D01*
X101147619Y-78525714D02*
X101100000Y-78478095D01*
X101052380Y-78382857D01*
X101052380Y-78144761D01*
X101100000Y-78049523D01*
X101147619Y-78001904D01*
X101242857Y-77954285D01*
X101338095Y-77954285D01*
X101480952Y-78001904D01*
X102052380Y-78573333D01*
X102052380Y-77954285D01*
G04 #@! TO.C,J2*
X108886666Y-90892380D02*
X108886666Y-91606666D01*
X108839047Y-91749523D01*
X108743809Y-91844761D01*
X108600952Y-91892380D01*
X108505714Y-91892380D01*
X109315238Y-90987619D02*
X109362857Y-90940000D01*
X109458095Y-90892380D01*
X109696190Y-90892380D01*
X109791428Y-90940000D01*
X109839047Y-90987619D01*
X109886666Y-91082857D01*
X109886666Y-91178095D01*
X109839047Y-91320952D01*
X109267619Y-91892380D01*
X109886666Y-91892380D01*
G04 #@! TO.C,J3*
X108886666Y-73112380D02*
X108886666Y-73826666D01*
X108839047Y-73969523D01*
X108743809Y-74064761D01*
X108600952Y-74112380D01*
X108505714Y-74112380D01*
X109267619Y-73112380D02*
X109886666Y-73112380D01*
X109553333Y-73493333D01*
X109696190Y-73493333D01*
X109791428Y-73540952D01*
X109839047Y-73588571D01*
X109886666Y-73683809D01*
X109886666Y-73921904D01*
X109839047Y-74017142D01*
X109791428Y-74064761D01*
X109696190Y-74112380D01*
X109410476Y-74112380D01*
X109315238Y-74064761D01*
X109267619Y-74017142D01*
G04 #@! TO.C,K1*
X113561904Y-83002380D02*
X113561904Y-82002380D01*
X114133333Y-83002380D02*
X113704761Y-82430952D01*
X114133333Y-82002380D02*
X113561904Y-82573809D01*
X115085714Y-83002380D02*
X114514285Y-83002380D01*
X114800000Y-83002380D02*
X114800000Y-82002380D01*
X114704761Y-82145238D01*
X114609523Y-82240476D01*
X114514285Y-82288095D01*
X107116523Y-85288380D02*
X106783190Y-84812190D01*
X106545095Y-85288380D02*
X106545095Y-84288380D01*
X106926047Y-84288380D01*
X107021285Y-84336000D01*
X107068904Y-84383619D01*
X107116523Y-84478857D01*
X107116523Y-84621714D01*
X107068904Y-84716952D01*
X107021285Y-84764571D01*
X106926047Y-84812190D01*
X106545095Y-84812190D01*
X103981285Y-85240761D02*
X104124142Y-85288380D01*
X104362238Y-85288380D01*
X104457476Y-85240761D01*
X104505095Y-85193142D01*
X104552714Y-85097904D01*
X104552714Y-85002666D01*
X104505095Y-84907428D01*
X104457476Y-84859809D01*
X104362238Y-84812190D01*
X104171761Y-84764571D01*
X104076523Y-84716952D01*
X104028904Y-84669333D01*
X103981285Y-84574095D01*
X103981285Y-84478857D01*
X104028904Y-84383619D01*
X104076523Y-84336000D01*
X104171761Y-84288380D01*
X104409857Y-84288380D01*
X104552714Y-84336000D01*
G04 #@! TO.C,J1*
X92162380Y-82883333D02*
X92876666Y-82883333D01*
X93019523Y-82930952D01*
X93114761Y-83026190D01*
X93162380Y-83169047D01*
X93162380Y-83264285D01*
X93162380Y-81883333D02*
X93162380Y-82454761D01*
X93162380Y-82169047D02*
X92162380Y-82169047D01*
X92305238Y-82264285D01*
X92400476Y-82359523D01*
X92448095Y-82454761D01*
G04 #@! TO.C,R1*
X96020833Y-81097380D02*
X95687500Y-80621190D01*
X95449404Y-81097380D02*
X95449404Y-80097380D01*
X95830357Y-80097380D01*
X95925595Y-80145000D01*
X95973214Y-80192619D01*
X96020833Y-80287857D01*
X96020833Y-80430714D01*
X95973214Y-80525952D01*
X95925595Y-80573571D01*
X95830357Y-80621190D01*
X95449404Y-80621190D01*
X96973214Y-81097380D02*
X96401785Y-81097380D01*
X96687500Y-81097380D02*
X96687500Y-80097380D01*
X96592261Y-80240238D01*
X96497023Y-80335476D01*
X96401785Y-80383095D01*
G04 #@! TO.C,D3*
X125547380Y-80113095D02*
X124547380Y-80113095D01*
X124547380Y-79875000D01*
X124595000Y-79732142D01*
X124690238Y-79636904D01*
X124785476Y-79589285D01*
X124975952Y-79541666D01*
X125118809Y-79541666D01*
X125309285Y-79589285D01*
X125404523Y-79636904D01*
X125499761Y-79732142D01*
X125547380Y-79875000D01*
X125547380Y-80113095D01*
X124547380Y-79208333D02*
X124547380Y-78589285D01*
X124928333Y-78922619D01*
X124928333Y-78779761D01*
X124975952Y-78684523D01*
X125023571Y-78636904D01*
X125118809Y-78589285D01*
X125356904Y-78589285D01*
X125452142Y-78636904D01*
X125499761Y-78684523D01*
X125547380Y-78779761D01*
X125547380Y-79065476D01*
X125499761Y-79160714D01*
X125452142Y-79208333D01*
G04 #@! TO.C,K2*
X139596904Y-83637380D02*
X139596904Y-82637380D01*
X140168333Y-83637380D02*
X139739761Y-83065952D01*
X140168333Y-82637380D02*
X139596904Y-83208809D01*
X140549285Y-82732619D02*
X140596904Y-82685000D01*
X140692142Y-82637380D01*
X140930238Y-82637380D01*
X141025476Y-82685000D01*
X141073095Y-82732619D01*
X141120714Y-82827857D01*
X141120714Y-82923095D01*
X141073095Y-83065952D01*
X140501666Y-83637380D01*
X141120714Y-83637380D01*
X129808973Y-85240761D02*
X129951830Y-85288380D01*
X130189926Y-85288380D01*
X130285164Y-85240761D01*
X130332783Y-85193142D01*
X130380402Y-85097904D01*
X130380402Y-85002666D01*
X130332783Y-84907428D01*
X130285164Y-84859809D01*
X130189926Y-84812190D01*
X129999449Y-84764571D01*
X129904211Y-84716952D01*
X129856592Y-84669333D01*
X129808973Y-84574095D01*
X129808973Y-84478857D01*
X129856592Y-84383619D01*
X129904211Y-84336000D01*
X129999449Y-84288380D01*
X130237545Y-84288380D01*
X130380402Y-84336000D01*
X132944211Y-85288380D02*
X132610878Y-84812190D01*
X132372783Y-85288380D02*
X132372783Y-84288380D01*
X132753735Y-84288380D01*
X132848973Y-84336000D01*
X132896592Y-84383619D01*
X132944211Y-84478857D01*
X132944211Y-84621714D01*
X132896592Y-84716952D01*
X132848973Y-84764571D01*
X132753735Y-84812190D01*
X132372783Y-84812190D01*
G04 #@! TO.C,J5*
X131776666Y-73747380D02*
X131776666Y-74461666D01*
X131729047Y-74604523D01*
X131633809Y-74699761D01*
X131490952Y-74747380D01*
X131395714Y-74747380D01*
X132729047Y-73747380D02*
X132252857Y-73747380D01*
X132205238Y-74223571D01*
X132252857Y-74175952D01*
X132348095Y-74128333D01*
X132586190Y-74128333D01*
X132681428Y-74175952D01*
X132729047Y-74223571D01*
X132776666Y-74318809D01*
X132776666Y-74556904D01*
X132729047Y-74652142D01*
X132681428Y-74699761D01*
X132586190Y-74747380D01*
X132348095Y-74747380D01*
X132252857Y-74699761D01*
X132205238Y-74652142D01*
G04 #@! TO.C,J4*
X131746666Y-90892380D02*
X131746666Y-91606666D01*
X131699047Y-91749523D01*
X131603809Y-91844761D01*
X131460952Y-91892380D01*
X131365714Y-91892380D01*
X132651428Y-91225714D02*
X132651428Y-91892380D01*
X132413333Y-90844761D02*
X132175238Y-91559047D01*
X132794285Y-91559047D01*
G04 #@! TO.C,D4*
X127452380Y-80113095D02*
X126452380Y-80113095D01*
X126452380Y-79875000D01*
X126500000Y-79732142D01*
X126595238Y-79636904D01*
X126690476Y-79589285D01*
X126880952Y-79541666D01*
X127023809Y-79541666D01*
X127214285Y-79589285D01*
X127309523Y-79636904D01*
X127404761Y-79732142D01*
X127452380Y-79875000D01*
X127452380Y-80113095D01*
X126785714Y-78684523D02*
X127452380Y-78684523D01*
X126404761Y-78922619D02*
X127119047Y-79160714D01*
X127119047Y-78541666D01*
D10*
G04 #@! TO.C,D1*
X100060000Y-85180000D02*
X100060000Y-81280000D01*
X98060000Y-85180000D02*
X100060000Y-85180000D01*
X98060000Y-85180000D02*
X98060000Y-81280000D01*
G04 #@! TO.C,D2*
X102600000Y-85180000D02*
X102600000Y-81280000D01*
X100600000Y-85180000D02*
X100600000Y-81280000D01*
X100600000Y-85180000D02*
X102600000Y-85180000D01*
G04 #@! TO.C,J2*
X101600000Y-97790000D02*
X101600000Y-90170000D01*
X101600000Y-90170000D02*
X116840000Y-90170000D01*
X116840000Y-97790000D02*
X116840000Y-90170000D01*
X101600000Y-97790000D02*
X116840000Y-97790000D01*
X101600000Y-96520000D02*
X116840000Y-96520000D01*
G04 #@! TO.C,J3*
X116840000Y-68580000D02*
X101600000Y-68580000D01*
X116840000Y-67310000D02*
X101600000Y-67310000D01*
X116840000Y-74930000D02*
X101600000Y-74930000D01*
X101600000Y-67310000D02*
X101600000Y-74930000D01*
X116840000Y-67310000D02*
X116840000Y-74930000D01*
G04 #@! TO.C,K1*
X104267000Y-82267000D02*
X104267000Y-81167000D01*
X102616000Y-86614000D02*
X102616000Y-88138000D01*
X106807000Y-82967000D02*
X106807000Y-84067000D01*
X104867000Y-82267000D02*
X104867000Y-82967000D01*
X107407000Y-82267000D02*
X107407000Y-82967000D01*
X103667000Y-82967000D02*
X103667000Y-82267000D01*
X107407000Y-82967000D02*
X106207000Y-82967000D01*
X106207000Y-82267000D02*
X107407000Y-82267000D01*
X102867000Y-87867000D02*
X123467000Y-87867000D01*
X106207000Y-82967000D02*
X106207000Y-82267000D01*
X103667000Y-82267000D02*
X104867000Y-82267000D01*
X104467000Y-82267000D02*
X104067000Y-82967000D01*
X104267000Y-82967000D02*
X104267000Y-84067000D01*
X106807000Y-82267000D02*
X106807000Y-81167000D01*
X102616000Y-88138000D02*
X104140000Y-88138000D01*
X102867000Y-77467000D02*
X102867000Y-87867000D01*
X107007000Y-82267000D02*
X106607000Y-82967000D01*
X123467000Y-87867000D02*
X123467000Y-77467000D01*
X104867000Y-82967000D02*
X103667000Y-82967000D01*
X123467000Y-77467000D02*
X102867000Y-77467000D01*
G04 #@! TO.C,J1*
X86360000Y-90170000D02*
X93980000Y-90170000D01*
X86360000Y-74930000D02*
X93980000Y-74930000D01*
X86360000Y-74930000D02*
X86360000Y-90170000D01*
X87630000Y-74930000D02*
X87630000Y-90170000D01*
X93980000Y-74930000D02*
X93980000Y-90170000D01*
G04 #@! TO.C,H1*
X148004903Y-71120000D02*
G75*
G03*
X148004903Y-71120000I-3224903J0D01*
G01*
G36*
X143180000Y-71220000D02*
G01*
X143280000Y-71620000D01*
X143480000Y-72020000D01*
X143880000Y-72420000D01*
X144280000Y-72620000D01*
X144680000Y-72720000D01*
X144780000Y-72720000D01*
X144780000Y-74344903D01*
X144280000Y-74320000D01*
X143280000Y-74020000D01*
X142480000Y-73420000D01*
X141980000Y-72720000D01*
X141680000Y-72020000D01*
X141580000Y-71620000D01*
X141580000Y-71120000D01*
X143180000Y-71120000D01*
X143180000Y-71220000D01*
G37*
D12*
X143180000Y-71220000D02*
X143280000Y-71620000D01*
X143480000Y-72020000D01*
X143880000Y-72420000D01*
X144280000Y-72620000D01*
X144680000Y-72720000D01*
X144780000Y-72720000D01*
X144780000Y-74344903D01*
X144280000Y-74320000D01*
X143280000Y-74020000D01*
X142480000Y-73420000D01*
X141980000Y-72720000D01*
X141680000Y-72020000D01*
X141580000Y-71620000D01*
X141580000Y-71120000D01*
X143180000Y-71120000D01*
X143180000Y-71220000D01*
G36*
X145280000Y-67920000D02*
G01*
X146280000Y-68220000D01*
X147080000Y-68820000D01*
X147580000Y-69520000D01*
X147880000Y-70220000D01*
X147980000Y-70620000D01*
X147980000Y-71120000D01*
X146380000Y-71120000D01*
X146380000Y-71020000D01*
X146280000Y-70620000D01*
X146080000Y-70220000D01*
X145680000Y-69820000D01*
X145280000Y-69620000D01*
X144880000Y-69520000D01*
X144780000Y-69520000D01*
X144780000Y-67895097D01*
X145280000Y-67920000D01*
G37*
X145280000Y-67920000D02*
X146280000Y-68220000D01*
X147080000Y-68820000D01*
X147580000Y-69520000D01*
X147880000Y-70220000D01*
X147980000Y-70620000D01*
X147980000Y-71120000D01*
X146380000Y-71120000D01*
X146380000Y-71020000D01*
X146280000Y-70620000D01*
X146080000Y-70220000D01*
X145680000Y-69820000D01*
X145280000Y-69620000D01*
X144880000Y-69520000D01*
X144780000Y-69520000D01*
X144780000Y-67895097D01*
X145280000Y-67920000D01*
D10*
G04 #@! TO.C,H2*
X93394903Y-93980000D02*
G75*
G03*
X93394903Y-93980000I-3224903J0D01*
G01*
G36*
X88570000Y-94080000D02*
G01*
X88670000Y-94480000D01*
X88870000Y-94880000D01*
X89270000Y-95280000D01*
X89670000Y-95480000D01*
X90070000Y-95580000D01*
X90170000Y-95580000D01*
X90170000Y-97204903D01*
X89670000Y-97180000D01*
X88670000Y-96880000D01*
X87870000Y-96280000D01*
X87370000Y-95580000D01*
X87070000Y-94880000D01*
X86970000Y-94480000D01*
X86970000Y-93980000D01*
X88570000Y-93980000D01*
X88570000Y-94080000D01*
G37*
D12*
X88570000Y-94080000D02*
X88670000Y-94480000D01*
X88870000Y-94880000D01*
X89270000Y-95280000D01*
X89670000Y-95480000D01*
X90070000Y-95580000D01*
X90170000Y-95580000D01*
X90170000Y-97204903D01*
X89670000Y-97180000D01*
X88670000Y-96880000D01*
X87870000Y-96280000D01*
X87370000Y-95580000D01*
X87070000Y-94880000D01*
X86970000Y-94480000D01*
X86970000Y-93980000D01*
X88570000Y-93980000D01*
X88570000Y-94080000D01*
G36*
X90670000Y-90780000D02*
G01*
X91670000Y-91080000D01*
X92470000Y-91680000D01*
X92970000Y-92380000D01*
X93270000Y-93080000D01*
X93370000Y-93480000D01*
X93370000Y-93980000D01*
X91770000Y-93980000D01*
X91770000Y-93880000D01*
X91670000Y-93480000D01*
X91470000Y-93080000D01*
X91070000Y-92680000D01*
X90670000Y-92480000D01*
X90270000Y-92380000D01*
X90170000Y-92380000D01*
X90170000Y-90755097D01*
X90670000Y-90780000D01*
G37*
X90670000Y-90780000D02*
X91670000Y-91080000D01*
X92470000Y-91680000D01*
X92970000Y-92380000D01*
X93270000Y-93080000D01*
X93370000Y-93480000D01*
X93370000Y-93980000D01*
X91770000Y-93980000D01*
X91770000Y-93880000D01*
X91670000Y-93480000D01*
X91470000Y-93080000D01*
X91070000Y-92680000D01*
X90670000Y-92480000D01*
X90270000Y-92380000D01*
X90170000Y-92380000D01*
X90170000Y-90755097D01*
X90670000Y-90780000D01*
D10*
G04 #@! TO.C,H3*
X148004903Y-93980000D02*
G75*
G03*
X148004903Y-93980000I-3224903J0D01*
G01*
G36*
X143180000Y-94080000D02*
G01*
X143280000Y-94480000D01*
X143480000Y-94880000D01*
X143880000Y-95280000D01*
X144280000Y-95480000D01*
X144680000Y-95580000D01*
X144780000Y-95580000D01*
X144780000Y-97204903D01*
X144280000Y-97180000D01*
X143280000Y-96880000D01*
X142480000Y-96280000D01*
X141980000Y-95580000D01*
X141680000Y-94880000D01*
X141580000Y-94480000D01*
X141580000Y-93980000D01*
X143180000Y-93980000D01*
X143180000Y-94080000D01*
G37*
D12*
X143180000Y-94080000D02*
X143280000Y-94480000D01*
X143480000Y-94880000D01*
X143880000Y-95280000D01*
X144280000Y-95480000D01*
X144680000Y-95580000D01*
X144780000Y-95580000D01*
X144780000Y-97204903D01*
X144280000Y-97180000D01*
X143280000Y-96880000D01*
X142480000Y-96280000D01*
X141980000Y-95580000D01*
X141680000Y-94880000D01*
X141580000Y-94480000D01*
X141580000Y-93980000D01*
X143180000Y-93980000D01*
X143180000Y-94080000D01*
G36*
X145280000Y-90780000D02*
G01*
X146280000Y-91080000D01*
X147080000Y-91680000D01*
X147580000Y-92380000D01*
X147880000Y-93080000D01*
X147980000Y-93480000D01*
X147980000Y-93980000D01*
X146380000Y-93980000D01*
X146380000Y-93880000D01*
X146280000Y-93480000D01*
X146080000Y-93080000D01*
X145680000Y-92680000D01*
X145280000Y-92480000D01*
X144880000Y-92380000D01*
X144780000Y-92380000D01*
X144780000Y-90755097D01*
X145280000Y-90780000D01*
G37*
X145280000Y-90780000D02*
X146280000Y-91080000D01*
X147080000Y-91680000D01*
X147580000Y-92380000D01*
X147880000Y-93080000D01*
X147980000Y-93480000D01*
X147980000Y-93980000D01*
X146380000Y-93980000D01*
X146380000Y-93880000D01*
X146280000Y-93480000D01*
X146080000Y-93080000D01*
X145680000Y-92680000D01*
X145280000Y-92480000D01*
X144880000Y-92380000D01*
X144780000Y-92380000D01*
X144780000Y-90755097D01*
X145280000Y-90780000D01*
D10*
G04 #@! TO.C,H4*
X93394903Y-71120000D02*
G75*
G03*
X93394903Y-71120000I-3224903J0D01*
G01*
G36*
X88570000Y-71220000D02*
G01*
X88670000Y-71620000D01*
X88870000Y-72020000D01*
X89270000Y-72420000D01*
X89670000Y-72620000D01*
X90070000Y-72720000D01*
X90170000Y-72720000D01*
X90170000Y-74344903D01*
X89670000Y-74320000D01*
X88670000Y-74020000D01*
X87870000Y-73420000D01*
X87370000Y-72720000D01*
X87070000Y-72020000D01*
X86970000Y-71620000D01*
X86970000Y-71120000D01*
X88570000Y-71120000D01*
X88570000Y-71220000D01*
G37*
D12*
X88570000Y-71220000D02*
X88670000Y-71620000D01*
X88870000Y-72020000D01*
X89270000Y-72420000D01*
X89670000Y-72620000D01*
X90070000Y-72720000D01*
X90170000Y-72720000D01*
X90170000Y-74344903D01*
X89670000Y-74320000D01*
X88670000Y-74020000D01*
X87870000Y-73420000D01*
X87370000Y-72720000D01*
X87070000Y-72020000D01*
X86970000Y-71620000D01*
X86970000Y-71120000D01*
X88570000Y-71120000D01*
X88570000Y-71220000D01*
G36*
X90670000Y-67920000D02*
G01*
X91670000Y-68220000D01*
X92470000Y-68820000D01*
X92970000Y-69520000D01*
X93270000Y-70220000D01*
X93370000Y-70620000D01*
X93370000Y-71120000D01*
X91770000Y-71120000D01*
X91770000Y-71020000D01*
X91670000Y-70620000D01*
X91470000Y-70220000D01*
X91070000Y-69820000D01*
X90670000Y-69620000D01*
X90270000Y-69520000D01*
X90170000Y-69520000D01*
X90170000Y-67895097D01*
X90670000Y-67920000D01*
G37*
X90670000Y-67920000D02*
X91670000Y-68220000D01*
X92470000Y-68820000D01*
X92970000Y-69520000D01*
X93270000Y-70220000D01*
X93370000Y-70620000D01*
X93370000Y-71120000D01*
X91770000Y-71120000D01*
X91770000Y-71020000D01*
X91670000Y-70620000D01*
X91470000Y-70220000D01*
X91070000Y-69820000D01*
X90670000Y-69620000D01*
X90270000Y-69520000D01*
X90170000Y-69520000D01*
X90170000Y-67895097D01*
X90670000Y-67920000D01*
G04 #@! TO.C,REF\u002A\u002A*
G36*
X95551782Y-74779109D02*
G01*
X95551782Y-74711314D01*
X95550696Y-74671662D01*
X95545454Y-74650116D01*
X95542334Y-74647480D01*
X95533081Y-74639662D01*
X95519604Y-74635442D01*
X95484627Y-74618219D01*
X95442579Y-74585138D01*
X95399356Y-74541893D01*
X95360854Y-74494174D01*
X95340801Y-74462830D01*
X95318851Y-74427123D01*
X95300967Y-74409371D01*
X95451188Y-74409371D01*
X95459254Y-74427987D01*
X95478820Y-74455183D01*
X95502944Y-74482448D01*
X95524682Y-74501267D01*
X95527508Y-74502943D01*
X95542334Y-74508616D01*
X95547856Y-74502955D01*
X95664951Y-74502955D01*
X95693243Y-74496934D01*
X95715618Y-74493863D01*
X95757717Y-74489548D01*
X95814178Y-74484488D01*
X95879635Y-74479181D01*
X95903862Y-74477344D01*
X95973421Y-74471927D01*
X96038018Y-74466459D01*
X96091548Y-74461488D01*
X96127910Y-74457561D01*
X96134509Y-74456675D01*
X96148056Y-74453334D01*
X96163914Y-74446101D01*
X96180135Y-74435805D01*
X96374674Y-74435805D01*
X96387104Y-74435273D01*
X96422110Y-74432769D01*
X96477215Y-74428496D01*
X96549943Y-74422653D01*
X96637814Y-74415443D01*
X96738351Y-74407066D01*
X96849077Y-74397723D01*
X96954205Y-74388758D01*
X97073483Y-74378602D01*
X97186080Y-74369142D01*
X97289305Y-74360596D01*
X97380473Y-74353179D01*
X97456895Y-74347108D01*
X97515883Y-74342601D01*
X97554749Y-74339873D01*
X97569844Y-74339116D01*
X97579238Y-74337935D01*
X97582966Y-74333256D01*
X97579471Y-74323276D01*
X97567199Y-74306190D01*
X97544594Y-74280196D01*
X97510100Y-74243490D01*
X97462162Y-74194267D01*
X97399224Y-74130726D01*
X97331968Y-74063305D01*
X97056477Y-73787601D01*
X97054406Y-73789533D01*
X96946295Y-73890409D01*
X96890377Y-73942768D01*
X96827948Y-74001535D01*
X96761443Y-74064385D01*
X96693298Y-74128995D01*
X96625948Y-74193042D01*
X96561828Y-74254203D01*
X96503372Y-74310153D01*
X96453018Y-74358570D01*
X96413198Y-74397130D01*
X96386350Y-74423509D01*
X96374908Y-74435384D01*
X96374674Y-74435805D01*
X96180135Y-74435805D01*
X96183861Y-74433440D01*
X96209673Y-74413811D01*
X96243129Y-74385678D01*
X96286007Y-74347502D01*
X96340083Y-74297746D01*
X96407136Y-74234871D01*
X96488943Y-74157341D01*
X96571950Y-74078251D01*
X96654094Y-73999564D01*
X96730169Y-73926112D01*
X96798325Y-73859724D01*
X96856712Y-73802227D01*
X96903481Y-73755451D01*
X96936782Y-73721224D01*
X96952222Y-73704182D01*
X97153046Y-73704182D01*
X97162170Y-73715722D01*
X97187200Y-73742710D01*
X97226052Y-73783021D01*
X97276643Y-73834529D01*
X97336888Y-73895109D01*
X97404704Y-73962636D01*
X97460565Y-74017826D01*
X97766129Y-74318724D01*
X98051555Y-74296401D01*
X98135219Y-74289669D01*
X98211727Y-74283157D01*
X98277081Y-74277234D01*
X98327281Y-74272268D01*
X98358329Y-74268629D01*
X98365273Y-74267458D01*
X98393565Y-74260838D01*
X98393565Y-73311364D01*
X98314606Y-73305026D01*
X98221315Y-73285890D01*
X98138791Y-73245846D01*
X98070038Y-73187418D01*
X98018063Y-73113129D01*
X97986863Y-73029748D01*
X97972228Y-73002698D01*
X97940819Y-72989156D01*
X97939434Y-72988872D01*
X97926174Y-72987247D01*
X97912595Y-72989256D01*
X97896181Y-72996858D01*
X97874411Y-73012016D01*
X97844767Y-73036688D01*
X97804732Y-73072836D01*
X97751785Y-73122420D01*
X97683409Y-73187401D01*
X97679005Y-73191599D01*
X97605611Y-73261493D01*
X97527437Y-73335800D01*
X97449864Y-73409414D01*
X97378275Y-73477229D01*
X97318051Y-73534140D01*
X97304587Y-73546832D01*
X97253820Y-73595487D01*
X97210375Y-73638709D01*
X97177241Y-73673395D01*
X97157405Y-73696444D01*
X97153046Y-73704182D01*
X96952222Y-73704182D01*
X96954767Y-73701373D01*
X96957442Y-73697140D01*
X96947741Y-73686003D01*
X96922441Y-73659971D01*
X96884082Y-73621570D01*
X96835200Y-73573328D01*
X96778334Y-73517770D01*
X96736906Y-73477592D01*
X96520000Y-73267831D01*
X96520000Y-73886337D01*
X96281089Y-73886337D01*
X96281089Y-73131881D01*
X96387542Y-73131881D01*
X96249654Y-72993565D01*
X96151840Y-72895447D01*
X96111766Y-72855248D01*
X95988952Y-72855248D01*
X95932450Y-72854863D01*
X95896505Y-72853100D01*
X95876530Y-72849050D01*
X95873438Y-72846442D01*
X96285703Y-72846442D01*
X96292854Y-72856334D01*
X96315841Y-72881524D01*
X96352439Y-72919810D01*
X96400422Y-72968989D01*
X96457566Y-73026861D01*
X96521647Y-73091222D01*
X96590438Y-73159871D01*
X96661716Y-73230605D01*
X96733255Y-73301222D01*
X96802830Y-73369520D01*
X96868217Y-73433296D01*
X96927191Y-73490350D01*
X96977527Y-73538478D01*
X97016999Y-73575478D01*
X97043383Y-73599148D01*
X97054406Y-73607290D01*
X97065780Y-73598984D01*
X97092563Y-73575733D01*
X97132292Y-73539865D01*
X97182507Y-73493713D01*
X97240746Y-73439606D01*
X97304547Y-73379874D01*
X97371449Y-73316848D01*
X97438990Y-73252858D01*
X97504710Y-73190236D01*
X97566146Y-73131310D01*
X97620837Y-73078412D01*
X97666322Y-73033872D01*
X97700138Y-73000020D01*
X97719826Y-72979188D01*
X97723837Y-72973506D01*
X97710891Y-72971634D01*
X97675134Y-72967746D01*
X97618804Y-72962057D01*
X97544140Y-72954781D01*
X97453380Y-72946131D01*
X97348762Y-72936322D01*
X97232526Y-72925566D01*
X97106908Y-72914079D01*
X97005618Y-72904907D01*
X96874279Y-72893174D01*
X96750552Y-72882335D01*
X96636681Y-72872570D01*
X96534911Y-72864063D01*
X96447487Y-72856995D01*
X96376653Y-72851549D01*
X96324653Y-72847908D01*
X96293732Y-72846253D01*
X96285703Y-72846442D01*
X95873438Y-72846442D01*
X95867937Y-72841801D01*
X95866139Y-72830870D01*
X95863498Y-72818712D01*
X95852912Y-72809727D01*
X95830381Y-72802826D01*
X95791909Y-72796924D01*
X95733498Y-72790935D01*
X95712104Y-72789013D01*
X95664951Y-72784852D01*
X95664951Y-74502955D01*
X95547856Y-74502955D01*
X95549462Y-74501308D01*
X95551662Y-74475993D01*
X95551782Y-74458908D01*
X95551782Y-74401881D01*
X95501485Y-74401881D01*
X95469976Y-74403544D01*
X95452463Y-74407697D01*
X95451188Y-74409371D01*
X95300967Y-74409371D01*
X95300411Y-74408819D01*
X95278668Y-74402388D01*
X95265718Y-74401894D01*
X95262575Y-74401894D01*
X95224852Y-74401881D01*
X95224852Y-74296048D01*
X95226029Y-74247355D01*
X95229165Y-74209405D01*
X95233671Y-74188308D01*
X95235495Y-74186023D01*
X95238295Y-74172641D01*
X95237148Y-74140074D01*
X95232393Y-74093916D01*
X95228003Y-74062376D01*
X95219378Y-74005188D01*
X95211591Y-73952886D01*
X95205847Y-73913582D01*
X95204215Y-73902055D01*
X95194888Y-73871937D01*
X95180272Y-73861188D01*
X95322893Y-73861188D01*
X95331496Y-73946065D01*
X95338756Y-74005368D01*
X95348379Y-74068551D01*
X95355252Y-74106386D01*
X95370407Y-74181832D01*
X95461095Y-74185526D01*
X95551782Y-74189221D01*
X95551782Y-72774698D01*
X95502786Y-72822542D01*
X95442324Y-72896850D01*
X95395691Y-72988816D01*
X95362249Y-73099998D01*
X95343753Y-73210471D01*
X95335122Y-73282773D01*
X95426040Y-73282773D01*
X95426040Y-73861188D01*
X95322893Y-73861188D01*
X95180272Y-73861188D01*
X95174320Y-73857920D01*
X95169778Y-73846230D01*
X95166470Y-73823288D01*
X95164215Y-73786265D01*
X95163558Y-73760594D01*
X95262575Y-73760594D01*
X95325446Y-73760594D01*
X95325446Y-73383367D01*
X95262575Y-73383367D01*
X95262575Y-73760594D01*
X95163558Y-73760594D01*
X95162834Y-73732332D01*
X95162150Y-73658660D01*
X95161980Y-73571980D01*
X95162077Y-73479471D01*
X95162530Y-73409094D01*
X95163590Y-73357836D01*
X95165503Y-73322680D01*
X95168519Y-73300611D01*
X95172885Y-73288615D01*
X95178849Y-73283676D01*
X95185784Y-73282773D01*
X95207795Y-73275079D01*
X95220321Y-73249879D01*
X95224788Y-73203991D01*
X95224852Y-73195736D01*
X95232868Y-73118027D01*
X95254936Y-73029767D01*
X95288084Y-72938915D01*
X95329339Y-72853430D01*
X95375731Y-72781274D01*
X95383082Y-72771928D01*
X95406998Y-72741467D01*
X95416576Y-72723428D01*
X95413480Y-72710831D01*
X95400704Y-72697900D01*
X95375678Y-72659707D01*
X95366071Y-72610002D01*
X95371067Y-72556476D01*
X95389851Y-72506822D01*
X95421606Y-72468733D01*
X95425297Y-72465975D01*
X95484575Y-72437474D01*
X95545934Y-72432172D01*
X95604427Y-72449482D01*
X95655104Y-72488820D01*
X95659289Y-72493630D01*
X95679167Y-72521560D01*
X95687921Y-72549898D01*
X95688553Y-72589737D01*
X95687992Y-72599689D01*
X95686562Y-72638668D01*
X95689839Y-72658746D01*
X95699728Y-72666015D01*
X95708961Y-72666760D01*
X95735744Y-72668284D01*
X95776025Y-72672065D01*
X95800124Y-72674782D01*
X95838401Y-72678723D01*
X95857996Y-72677084D01*
X95865158Y-72667579D01*
X95866139Y-72650649D01*
X95862901Y-72640608D01*
X95852420Y-72624410D01*
X95833548Y-72600855D01*
X95805135Y-72568743D01*
X95779126Y-72540891D01*
X95961172Y-72540891D01*
X96042179Y-72622624D01*
X96091428Y-72668730D01*
X96129159Y-72696306D01*
X96151840Y-72704357D01*
X96167270Y-72702529D01*
X96175867Y-72693277D01*
X96179613Y-72670950D01*
X96180489Y-72629895D01*
X96180495Y-72622624D01*
X96180495Y-72540891D01*
X95961172Y-72540891D01*
X95779126Y-72540891D01*
X95766035Y-72526872D01*
X95715097Y-72474043D01*
X95651173Y-72409055D01*
X95573114Y-72330709D01*
X95479772Y-72237803D01*
X95369998Y-72129137D01*
X95316952Y-72076769D01*
X94767767Y-71534951D01*
X94854848Y-71535570D01*
X94941931Y-71536189D01*
X95400891Y-71987914D01*
X95859852Y-72439639D01*
X96070471Y-72439968D01*
X96281089Y-72440297D01*
X96281089Y-72715390D01*
X96334530Y-72722478D01*
X96358888Y-72725162D01*
X96404759Y-72729687D01*
X96469405Y-72735809D01*
X96550091Y-72743288D01*
X96644081Y-72751881D01*
X96748637Y-72761346D01*
X96861025Y-72771442D01*
X96978507Y-72781926D01*
X97098348Y-72792556D01*
X97217811Y-72803091D01*
X97334159Y-72813287D01*
X97444657Y-72822905D01*
X97546569Y-72831700D01*
X97637158Y-72839432D01*
X97713687Y-72845858D01*
X97773421Y-72850737D01*
X97813624Y-72853825D01*
X97831559Y-72854883D01*
X97831644Y-72854882D01*
X97846035Y-72847173D01*
X97875748Y-72824019D01*
X97921131Y-72785105D01*
X97982529Y-72730116D01*
X98060288Y-72658736D01*
X98154754Y-72570651D01*
X98266272Y-72465546D01*
X98395188Y-72343105D01*
X98431287Y-72308690D01*
X99003416Y-71762863D01*
X99091436Y-71851119D01*
X99013758Y-71922515D01*
X98985686Y-71948634D01*
X98942274Y-71989434D01*
X98886366Y-72042223D01*
X98820808Y-72104309D01*
X98748441Y-72173000D01*
X98672112Y-72245604D01*
X98626524Y-72289040D01*
X98541119Y-72370584D01*
X98472710Y-72436496D01*
X98420053Y-72488456D01*
X98381905Y-72528145D01*
X98357020Y-72557243D01*
X98344156Y-72577431D01*
X98342068Y-72590390D01*
X98349513Y-72597800D01*
X98365246Y-72601342D01*
X98388023Y-72602697D01*
X98394239Y-72602879D01*
X98437061Y-72612297D01*
X98488819Y-72635503D01*
X98541328Y-72667864D01*
X98586403Y-72704748D01*
X98600328Y-72719507D01*
X98649047Y-72795233D01*
X98676306Y-72883692D01*
X98682773Y-72961900D01*
X98670576Y-73050532D01*
X98634813Y-73132388D01*
X98576722Y-73204836D01*
X98562262Y-73218203D01*
X98506733Y-73267082D01*
X98506733Y-74112674D01*
X98682773Y-74112674D01*
X98682773Y-74339010D01*
X98600531Y-74339010D01*
X98544386Y-74341850D01*
X98505416Y-74351393D01*
X98484219Y-74362991D01*
X98469052Y-74371277D01*
X98447062Y-74378373D01*
X98414987Y-74384748D01*
X98369569Y-74390872D01*
X98307548Y-74397216D01*
X98225662Y-74404250D01*
X98164746Y-74409066D01*
X97879343Y-74431161D01*
X98428805Y-74973565D01*
X98528228Y-75071637D01*
X98623815Y-75165784D01*
X98713810Y-75254285D01*
X98796457Y-75335420D01*
X98870001Y-75407469D01*
X98932684Y-75468712D01*
X98982752Y-75517427D01*
X99018448Y-75551896D01*
X99037995Y-75570379D01*
X99068944Y-75600743D01*
X99090530Y-75626071D01*
X99097723Y-75639695D01*
X99089297Y-75657095D01*
X99068245Y-75682460D01*
X99059671Y-75691058D01*
X99021620Y-75727514D01*
X98817658Y-75526802D01*
X98765699Y-75475596D01*
X98698820Y-75409569D01*
X98619950Y-75331618D01*
X98532014Y-75244638D01*
X98437941Y-75151526D01*
X98340658Y-75055179D01*
X98243093Y-74958492D01*
X98173145Y-74889134D01*
X98066550Y-74783703D01*
X97976307Y-74695129D01*
X97901192Y-74622281D01*
X97839986Y-74564023D01*
X97791466Y-74519225D01*
X97766129Y-74497021D01*
X97754411Y-74486751D01*
X97727599Y-74465471D01*
X97709808Y-74454251D01*
X97701570Y-74451754D01*
X97683590Y-74452700D01*
X97642892Y-74455573D01*
X97581819Y-74460187D01*
X97502713Y-74466358D01*
X97407914Y-74473898D01*
X97299767Y-74482621D01*
X97180612Y-74492343D01*
X97052791Y-74502876D01*
X96950635Y-74511365D01*
X96374674Y-74559396D01*
X96230726Y-74571401D01*
X95599158Y-75171938D01*
X94967589Y-75772475D01*
X94879315Y-75772034D01*
X94791040Y-75771592D01*
X94894666Y-75674583D01*
X94952463Y-75620291D01*
X95020368Y-75556192D01*
X95096572Y-75484016D01*
X95179269Y-75405492D01*
X95266653Y-75322349D01*
X95356915Y-75236319D01*
X95448250Y-75149130D01*
X95538849Y-75062513D01*
X95626907Y-74978197D01*
X95710615Y-74897912D01*
X95788167Y-74823387D01*
X95857757Y-74756354D01*
X95917576Y-74698541D01*
X95965818Y-74651679D01*
X96000676Y-74617496D01*
X96020343Y-74597724D01*
X96024116Y-74593390D01*
X96010992Y-74593092D01*
X95977389Y-74594731D01*
X95927880Y-74598023D01*
X95867037Y-74602682D01*
X95842732Y-74604682D01*
X95664951Y-74619577D01*
X95664951Y-74779109D01*
X95551782Y-74779109D01*
G37*
X95551782Y-74779109D02*
X95551782Y-74711314D01*
X95550696Y-74671662D01*
X95545454Y-74650116D01*
X95542334Y-74647480D01*
X95533081Y-74639662D01*
X95519604Y-74635442D01*
X95484627Y-74618219D01*
X95442579Y-74585138D01*
X95399356Y-74541893D01*
X95360854Y-74494174D01*
X95340801Y-74462830D01*
X95318851Y-74427123D01*
X95300967Y-74409371D01*
X95451188Y-74409371D01*
X95459254Y-74427987D01*
X95478820Y-74455183D01*
X95502944Y-74482448D01*
X95524682Y-74501267D01*
X95527508Y-74502943D01*
X95542334Y-74508616D01*
X95547856Y-74502955D01*
X95664951Y-74502955D01*
X95693243Y-74496934D01*
X95715618Y-74493863D01*
X95757717Y-74489548D01*
X95814178Y-74484488D01*
X95879635Y-74479181D01*
X95903862Y-74477344D01*
X95973421Y-74471927D01*
X96038018Y-74466459D01*
X96091548Y-74461488D01*
X96127910Y-74457561D01*
X96134509Y-74456675D01*
X96148056Y-74453334D01*
X96163914Y-74446101D01*
X96180135Y-74435805D01*
X96374674Y-74435805D01*
X96387104Y-74435273D01*
X96422110Y-74432769D01*
X96477215Y-74428496D01*
X96549943Y-74422653D01*
X96637814Y-74415443D01*
X96738351Y-74407066D01*
X96849077Y-74397723D01*
X96954205Y-74388758D01*
X97073483Y-74378602D01*
X97186080Y-74369142D01*
X97289305Y-74360596D01*
X97380473Y-74353179D01*
X97456895Y-74347108D01*
X97515883Y-74342601D01*
X97554749Y-74339873D01*
X97569844Y-74339116D01*
X97579238Y-74337935D01*
X97582966Y-74333256D01*
X97579471Y-74323276D01*
X97567199Y-74306190D01*
X97544594Y-74280196D01*
X97510100Y-74243490D01*
X97462162Y-74194267D01*
X97399224Y-74130726D01*
X97331968Y-74063305D01*
X97056477Y-73787601D01*
X97054406Y-73789533D01*
X96946295Y-73890409D01*
X96890377Y-73942768D01*
X96827948Y-74001535D01*
X96761443Y-74064385D01*
X96693298Y-74128995D01*
X96625948Y-74193042D01*
X96561828Y-74254203D01*
X96503372Y-74310153D01*
X96453018Y-74358570D01*
X96413198Y-74397130D01*
X96386350Y-74423509D01*
X96374908Y-74435384D01*
X96374674Y-74435805D01*
X96180135Y-74435805D01*
X96183861Y-74433440D01*
X96209673Y-74413811D01*
X96243129Y-74385678D01*
X96286007Y-74347502D01*
X96340083Y-74297746D01*
X96407136Y-74234871D01*
X96488943Y-74157341D01*
X96571950Y-74078251D01*
X96654094Y-73999564D01*
X96730169Y-73926112D01*
X96798325Y-73859724D01*
X96856712Y-73802227D01*
X96903481Y-73755451D01*
X96936782Y-73721224D01*
X96952222Y-73704182D01*
X97153046Y-73704182D01*
X97162170Y-73715722D01*
X97187200Y-73742710D01*
X97226052Y-73783021D01*
X97276643Y-73834529D01*
X97336888Y-73895109D01*
X97404704Y-73962636D01*
X97460565Y-74017826D01*
X97766129Y-74318724D01*
X98051555Y-74296401D01*
X98135219Y-74289669D01*
X98211727Y-74283157D01*
X98277081Y-74277234D01*
X98327281Y-74272268D01*
X98358329Y-74268629D01*
X98365273Y-74267458D01*
X98393565Y-74260838D01*
X98393565Y-73311364D01*
X98314606Y-73305026D01*
X98221315Y-73285890D01*
X98138791Y-73245846D01*
X98070038Y-73187418D01*
X98018063Y-73113129D01*
X97986863Y-73029748D01*
X97972228Y-73002698D01*
X97940819Y-72989156D01*
X97939434Y-72988872D01*
X97926174Y-72987247D01*
X97912595Y-72989256D01*
X97896181Y-72996858D01*
X97874411Y-73012016D01*
X97844767Y-73036688D01*
X97804732Y-73072836D01*
X97751785Y-73122420D01*
X97683409Y-73187401D01*
X97679005Y-73191599D01*
X97605611Y-73261493D01*
X97527437Y-73335800D01*
X97449864Y-73409414D01*
X97378275Y-73477229D01*
X97318051Y-73534140D01*
X97304587Y-73546832D01*
X97253820Y-73595487D01*
X97210375Y-73638709D01*
X97177241Y-73673395D01*
X97157405Y-73696444D01*
X97153046Y-73704182D01*
X96952222Y-73704182D01*
X96954767Y-73701373D01*
X96957442Y-73697140D01*
X96947741Y-73686003D01*
X96922441Y-73659971D01*
X96884082Y-73621570D01*
X96835200Y-73573328D01*
X96778334Y-73517770D01*
X96736906Y-73477592D01*
X96520000Y-73267831D01*
X96520000Y-73886337D01*
X96281089Y-73886337D01*
X96281089Y-73131881D01*
X96387542Y-73131881D01*
X96249654Y-72993565D01*
X96151840Y-72895447D01*
X96111766Y-72855248D01*
X95988952Y-72855248D01*
X95932450Y-72854863D01*
X95896505Y-72853100D01*
X95876530Y-72849050D01*
X95873438Y-72846442D01*
X96285703Y-72846442D01*
X96292854Y-72856334D01*
X96315841Y-72881524D01*
X96352439Y-72919810D01*
X96400422Y-72968989D01*
X96457566Y-73026861D01*
X96521647Y-73091222D01*
X96590438Y-73159871D01*
X96661716Y-73230605D01*
X96733255Y-73301222D01*
X96802830Y-73369520D01*
X96868217Y-73433296D01*
X96927191Y-73490350D01*
X96977527Y-73538478D01*
X97016999Y-73575478D01*
X97043383Y-73599148D01*
X97054406Y-73607290D01*
X97065780Y-73598984D01*
X97092563Y-73575733D01*
X97132292Y-73539865D01*
X97182507Y-73493713D01*
X97240746Y-73439606D01*
X97304547Y-73379874D01*
X97371449Y-73316848D01*
X97438990Y-73252858D01*
X97504710Y-73190236D01*
X97566146Y-73131310D01*
X97620837Y-73078412D01*
X97666322Y-73033872D01*
X97700138Y-73000020D01*
X97719826Y-72979188D01*
X97723837Y-72973506D01*
X97710891Y-72971634D01*
X97675134Y-72967746D01*
X97618804Y-72962057D01*
X97544140Y-72954781D01*
X97453380Y-72946131D01*
X97348762Y-72936322D01*
X97232526Y-72925566D01*
X97106908Y-72914079D01*
X97005618Y-72904907D01*
X96874279Y-72893174D01*
X96750552Y-72882335D01*
X96636681Y-72872570D01*
X96534911Y-72864063D01*
X96447487Y-72856995D01*
X96376653Y-72851549D01*
X96324653Y-72847908D01*
X96293732Y-72846253D01*
X96285703Y-72846442D01*
X95873438Y-72846442D01*
X95867937Y-72841801D01*
X95866139Y-72830870D01*
X95863498Y-72818712D01*
X95852912Y-72809727D01*
X95830381Y-72802826D01*
X95791909Y-72796924D01*
X95733498Y-72790935D01*
X95712104Y-72789013D01*
X95664951Y-72784852D01*
X95664951Y-74502955D01*
X95547856Y-74502955D01*
X95549462Y-74501308D01*
X95551662Y-74475993D01*
X95551782Y-74458908D01*
X95551782Y-74401881D01*
X95501485Y-74401881D01*
X95469976Y-74403544D01*
X95452463Y-74407697D01*
X95451188Y-74409371D01*
X95300967Y-74409371D01*
X95300411Y-74408819D01*
X95278668Y-74402388D01*
X95265718Y-74401894D01*
X95262575Y-74401894D01*
X95224852Y-74401881D01*
X95224852Y-74296048D01*
X95226029Y-74247355D01*
X95229165Y-74209405D01*
X95233671Y-74188308D01*
X95235495Y-74186023D01*
X95238295Y-74172641D01*
X95237148Y-74140074D01*
X95232393Y-74093916D01*
X95228003Y-74062376D01*
X95219378Y-74005188D01*
X95211591Y-73952886D01*
X95205847Y-73913582D01*
X95204215Y-73902055D01*
X95194888Y-73871937D01*
X95180272Y-73861188D01*
X95322893Y-73861188D01*
X95331496Y-73946065D01*
X95338756Y-74005368D01*
X95348379Y-74068551D01*
X95355252Y-74106386D01*
X95370407Y-74181832D01*
X95461095Y-74185526D01*
X95551782Y-74189221D01*
X95551782Y-72774698D01*
X95502786Y-72822542D01*
X95442324Y-72896850D01*
X95395691Y-72988816D01*
X95362249Y-73099998D01*
X95343753Y-73210471D01*
X95335122Y-73282773D01*
X95426040Y-73282773D01*
X95426040Y-73861188D01*
X95322893Y-73861188D01*
X95180272Y-73861188D01*
X95174320Y-73857920D01*
X95169778Y-73846230D01*
X95166470Y-73823288D01*
X95164215Y-73786265D01*
X95163558Y-73760594D01*
X95262575Y-73760594D01*
X95325446Y-73760594D01*
X95325446Y-73383367D01*
X95262575Y-73383367D01*
X95262575Y-73760594D01*
X95163558Y-73760594D01*
X95162834Y-73732332D01*
X95162150Y-73658660D01*
X95161980Y-73571980D01*
X95162077Y-73479471D01*
X95162530Y-73409094D01*
X95163590Y-73357836D01*
X95165503Y-73322680D01*
X95168519Y-73300611D01*
X95172885Y-73288615D01*
X95178849Y-73283676D01*
X95185784Y-73282773D01*
X95207795Y-73275079D01*
X95220321Y-73249879D01*
X95224788Y-73203991D01*
X95224852Y-73195736D01*
X95232868Y-73118027D01*
X95254936Y-73029767D01*
X95288084Y-72938915D01*
X95329339Y-72853430D01*
X95375731Y-72781274D01*
X95383082Y-72771928D01*
X95406998Y-72741467D01*
X95416576Y-72723428D01*
X95413480Y-72710831D01*
X95400704Y-72697900D01*
X95375678Y-72659707D01*
X95366071Y-72610002D01*
X95371067Y-72556476D01*
X95389851Y-72506822D01*
X95421606Y-72468733D01*
X95425297Y-72465975D01*
X95484575Y-72437474D01*
X95545934Y-72432172D01*
X95604427Y-72449482D01*
X95655104Y-72488820D01*
X95659289Y-72493630D01*
X95679167Y-72521560D01*
X95687921Y-72549898D01*
X95688553Y-72589737D01*
X95687992Y-72599689D01*
X95686562Y-72638668D01*
X95689839Y-72658746D01*
X95699728Y-72666015D01*
X95708961Y-72666760D01*
X95735744Y-72668284D01*
X95776025Y-72672065D01*
X95800124Y-72674782D01*
X95838401Y-72678723D01*
X95857996Y-72677084D01*
X95865158Y-72667579D01*
X95866139Y-72650649D01*
X95862901Y-72640608D01*
X95852420Y-72624410D01*
X95833548Y-72600855D01*
X95805135Y-72568743D01*
X95779126Y-72540891D01*
X95961172Y-72540891D01*
X96042179Y-72622624D01*
X96091428Y-72668730D01*
X96129159Y-72696306D01*
X96151840Y-72704357D01*
X96167270Y-72702529D01*
X96175867Y-72693277D01*
X96179613Y-72670950D01*
X96180489Y-72629895D01*
X96180495Y-72622624D01*
X96180495Y-72540891D01*
X95961172Y-72540891D01*
X95779126Y-72540891D01*
X95766035Y-72526872D01*
X95715097Y-72474043D01*
X95651173Y-72409055D01*
X95573114Y-72330709D01*
X95479772Y-72237803D01*
X95369998Y-72129137D01*
X95316952Y-72076769D01*
X94767767Y-71534951D01*
X94854848Y-71535570D01*
X94941931Y-71536189D01*
X95400891Y-71987914D01*
X95859852Y-72439639D01*
X96070471Y-72439968D01*
X96281089Y-72440297D01*
X96281089Y-72715390D01*
X96334530Y-72722478D01*
X96358888Y-72725162D01*
X96404759Y-72729687D01*
X96469405Y-72735809D01*
X96550091Y-72743288D01*
X96644081Y-72751881D01*
X96748637Y-72761346D01*
X96861025Y-72771442D01*
X96978507Y-72781926D01*
X97098348Y-72792556D01*
X97217811Y-72803091D01*
X97334159Y-72813287D01*
X97444657Y-72822905D01*
X97546569Y-72831700D01*
X97637158Y-72839432D01*
X97713687Y-72845858D01*
X97773421Y-72850737D01*
X97813624Y-72853825D01*
X97831559Y-72854883D01*
X97831644Y-72854882D01*
X97846035Y-72847173D01*
X97875748Y-72824019D01*
X97921131Y-72785105D01*
X97982529Y-72730116D01*
X98060288Y-72658736D01*
X98154754Y-72570651D01*
X98266272Y-72465546D01*
X98395188Y-72343105D01*
X98431287Y-72308690D01*
X99003416Y-71762863D01*
X99091436Y-71851119D01*
X99013758Y-71922515D01*
X98985686Y-71948634D01*
X98942274Y-71989434D01*
X98886366Y-72042223D01*
X98820808Y-72104309D01*
X98748441Y-72173000D01*
X98672112Y-72245604D01*
X98626524Y-72289040D01*
X98541119Y-72370584D01*
X98472710Y-72436496D01*
X98420053Y-72488456D01*
X98381905Y-72528145D01*
X98357020Y-72557243D01*
X98344156Y-72577431D01*
X98342068Y-72590390D01*
X98349513Y-72597800D01*
X98365246Y-72601342D01*
X98388023Y-72602697D01*
X98394239Y-72602879D01*
X98437061Y-72612297D01*
X98488819Y-72635503D01*
X98541328Y-72667864D01*
X98586403Y-72704748D01*
X98600328Y-72719507D01*
X98649047Y-72795233D01*
X98676306Y-72883692D01*
X98682773Y-72961900D01*
X98670576Y-73050532D01*
X98634813Y-73132388D01*
X98576722Y-73204836D01*
X98562262Y-73218203D01*
X98506733Y-73267082D01*
X98506733Y-74112674D01*
X98682773Y-74112674D01*
X98682773Y-74339010D01*
X98600531Y-74339010D01*
X98544386Y-74341850D01*
X98505416Y-74351393D01*
X98484219Y-74362991D01*
X98469052Y-74371277D01*
X98447062Y-74378373D01*
X98414987Y-74384748D01*
X98369569Y-74390872D01*
X98307548Y-74397216D01*
X98225662Y-74404250D01*
X98164746Y-74409066D01*
X97879343Y-74431161D01*
X98428805Y-74973565D01*
X98528228Y-75071637D01*
X98623815Y-75165784D01*
X98713810Y-75254285D01*
X98796457Y-75335420D01*
X98870001Y-75407469D01*
X98932684Y-75468712D01*
X98982752Y-75517427D01*
X99018448Y-75551896D01*
X99037995Y-75570379D01*
X99068944Y-75600743D01*
X99090530Y-75626071D01*
X99097723Y-75639695D01*
X99089297Y-75657095D01*
X99068245Y-75682460D01*
X99059671Y-75691058D01*
X99021620Y-75727514D01*
X98817658Y-75526802D01*
X98765699Y-75475596D01*
X98698820Y-75409569D01*
X98619950Y-75331618D01*
X98532014Y-75244638D01*
X98437941Y-75151526D01*
X98340658Y-75055179D01*
X98243093Y-74958492D01*
X98173145Y-74889134D01*
X98066550Y-74783703D01*
X97976307Y-74695129D01*
X97901192Y-74622281D01*
X97839986Y-74564023D01*
X97791466Y-74519225D01*
X97766129Y-74497021D01*
X97754411Y-74486751D01*
X97727599Y-74465471D01*
X97709808Y-74454251D01*
X97701570Y-74451754D01*
X97683590Y-74452700D01*
X97642892Y-74455573D01*
X97581819Y-74460187D01*
X97502713Y-74466358D01*
X97407914Y-74473898D01*
X97299767Y-74482621D01*
X97180612Y-74492343D01*
X97052791Y-74502876D01*
X96950635Y-74511365D01*
X96374674Y-74559396D01*
X96230726Y-74571401D01*
X95599158Y-75171938D01*
X94967589Y-75772475D01*
X94879315Y-75772034D01*
X94791040Y-75771592D01*
X94894666Y-75674583D01*
X94952463Y-75620291D01*
X95020368Y-75556192D01*
X95096572Y-75484016D01*
X95179269Y-75405492D01*
X95266653Y-75322349D01*
X95356915Y-75236319D01*
X95448250Y-75149130D01*
X95538849Y-75062513D01*
X95626907Y-74978197D01*
X95710615Y-74897912D01*
X95788167Y-74823387D01*
X95857757Y-74756354D01*
X95917576Y-74698541D01*
X95965818Y-74651679D01*
X96000676Y-74617496D01*
X96020343Y-74597724D01*
X96024116Y-74593390D01*
X96010992Y-74593092D01*
X95977389Y-74594731D01*
X95927880Y-74598023D01*
X95867037Y-74602682D01*
X95842732Y-74604682D01*
X95664951Y-74619577D01*
X95664951Y-74779109D01*
X95551782Y-74779109D01*
G36*
X100807822Y-75432971D02*
G01*
X99940198Y-75432971D01*
X99940198Y-71912178D01*
X100807822Y-71912178D01*
X100807822Y-75432971D01*
G37*
X100807822Y-75432971D02*
X99940198Y-75432971D01*
X99940198Y-71912178D01*
X100807822Y-71912178D01*
X100807822Y-75432971D01*
D10*
G04 #@! TO.C,R1*
X96446078Y-83260000D02*
X95928922Y-83260000D01*
X96446078Y-81840000D02*
X95928922Y-81840000D01*
G04 #@! TO.C,kibuzzard-62BC6F34*
G36*
X135078887Y-67404456D02*
G01*
X129081113Y-67404456D01*
X129081113Y-65889981D01*
X130951287Y-65889981D01*
X131110831Y-65889981D01*
X131110831Y-66775806D01*
X131372769Y-66775806D01*
X131468019Y-66674305D01*
X131563269Y-66560303D01*
X131656137Y-66439157D01*
X131744244Y-66316225D01*
X131826397Y-66193888D01*
X131901406Y-66074528D01*
X131966295Y-65962907D01*
X132018087Y-65863788D01*
X132018087Y-65649475D01*
X131403725Y-65649475D01*
X131403725Y-65373250D01*
X132156200Y-65373250D01*
X132230019Y-65604231D01*
X132350272Y-65551844D01*
X132539581Y-65525650D01*
X132709543Y-65559285D01*
X132824141Y-65660191D01*
X132872427Y-65762981D01*
X132901399Y-65891966D01*
X132911056Y-66047144D01*
X132903020Y-66180494D01*
X132878909Y-66290031D01*
X132795566Y-66446003D01*
X132678884Y-66529347D01*
X132544344Y-66554350D01*
X132366941Y-66529347D01*
X132234781Y-66468625D01*
X132158581Y-66701988D01*
X132207397Y-66730563D01*
X132287169Y-66766281D01*
X132397897Y-66796047D01*
X132539581Y-66809144D01*
X132679182Y-66796345D01*
X132807472Y-66757947D01*
X132921772Y-66694844D01*
X133019403Y-66607928D01*
X133098877Y-66498093D01*
X133158706Y-66366231D01*
X133196211Y-66213236D01*
X133208712Y-66040000D01*
X133198443Y-65866020D01*
X133167636Y-65713173D01*
X133116290Y-65581461D01*
X133044406Y-65470881D01*
X132918465Y-65359756D01*
X132759715Y-65293081D01*
X132568156Y-65270856D01*
X132438080Y-65278893D01*
X132324078Y-65303003D01*
X132156200Y-65373250D01*
X131403725Y-65373250D01*
X131403725Y-65301813D01*
X131110831Y-65301813D01*
X131110831Y-65649475D01*
X130951287Y-65649475D01*
X130951287Y-65889981D01*
X129081113Y-65889981D01*
X129081113Y-64675544D01*
X135078887Y-64675544D01*
X135078887Y-67404456D01*
G37*
G36*
X131665662Y-66025713D02*
G01*
X131581128Y-66162634D01*
X131491831Y-66292413D01*
X131403725Y-66409094D01*
X131403725Y-65889981D01*
X131737100Y-65889981D01*
X131665662Y-66025713D01*
G37*
G04 #@! TO.C,kibuzzard-62BC6E53*
G36*
X85579347Y-77292597D02*
G01*
X85580537Y-77333078D01*
X85566845Y-77438448D01*
X85525769Y-77521197D01*
X85455522Y-77574775D01*
X85354319Y-77592634D01*
X85188822Y-77525959D01*
X85145066Y-77438448D01*
X85130481Y-77309266D01*
X85130481Y-77244972D01*
X85573394Y-77244972D01*
X85579347Y-77292597D01*
G37*
G36*
X86430644Y-74471113D02*
G01*
X86430644Y-80468887D01*
X83749356Y-80468887D01*
X83749356Y-77987922D01*
X84344669Y-77987922D01*
X84500641Y-77920056D01*
X84664947Y-77837903D01*
X84822109Y-77749797D01*
X84959031Y-77664072D01*
X85026302Y-77768252D01*
X85118575Y-77837903D01*
X85229303Y-77877194D01*
X85351938Y-77890291D01*
X85467726Y-77880468D01*
X85567441Y-77851000D01*
X85718650Y-77737891D01*
X85770442Y-77656928D01*
X85806756Y-77561678D01*
X85828188Y-77453331D01*
X85835331Y-77333078D01*
X85832950Y-77249734D01*
X85826997Y-77149722D01*
X85815091Y-77046138D01*
X85797231Y-76952078D01*
X84344669Y-76952078D01*
X84344669Y-77244972D01*
X84887594Y-77244972D01*
X84887594Y-77397372D01*
X84752755Y-77478037D01*
X84619703Y-77553344D01*
X84484865Y-77621507D01*
X84344669Y-77680741D01*
X84344669Y-77987922D01*
X83749356Y-77987922D01*
X83749356Y-74471113D01*
X86430644Y-74471113D01*
G37*
G04 #@! TO.C,kibuzzard-62BC6F69*
G36*
X111301113Y-97695544D02*
G01*
X117298887Y-97695544D01*
X117298887Y-100424456D01*
X111301113Y-100424456D01*
X111301113Y-99717225D01*
X113205816Y-99717225D01*
X113370122Y-99789853D01*
X113498114Y-99819321D01*
X113663016Y-99829144D01*
X113830100Y-99816576D01*
X113966228Y-99778873D01*
X114071400Y-99716034D01*
X114172305Y-99579410D01*
X114205941Y-99395756D01*
X114195820Y-99284730D01*
X114165459Y-99194541D01*
X114061875Y-99061191D01*
X113923763Y-98975466D01*
X113779697Y-98917125D01*
X113688019Y-98881406D01*
X113604675Y-98837353D01*
X113543953Y-98780203D01*
X113520141Y-98705194D01*
X113540519Y-98631375D01*
X114415491Y-98631375D01*
X114510741Y-98874262D01*
X114655997Y-98815922D01*
X114808397Y-98731387D01*
X114808397Y-99555300D01*
X114498834Y-99555300D01*
X114498834Y-99798187D01*
X115394184Y-99798187D01*
X115394184Y-99555300D01*
X115101291Y-99555300D01*
X115101291Y-98324194D01*
X114901266Y-98324194D01*
X114798872Y-98417062D01*
X114672666Y-98502787D01*
X114539316Y-98576606D01*
X114415491Y-98631375D01*
X113540519Y-98631375D01*
X113546070Y-98611267D01*
X113623857Y-98554910D01*
X113753503Y-98536125D01*
X113921381Y-98559937D01*
X114053541Y-98617087D01*
X114139266Y-98390869D01*
X113969006Y-98321812D01*
X113859171Y-98298595D01*
X113732072Y-98290856D01*
X113586154Y-98303821D01*
X113462726Y-98342715D01*
X113361788Y-98407537D01*
X113260882Y-98546841D01*
X113227247Y-98731387D01*
X113265347Y-98906409D01*
X113361788Y-99024281D01*
X113491566Y-99102862D01*
X113629678Y-99157631D01*
X113729691Y-99199303D01*
X113820178Y-99249309D01*
X113886853Y-99312412D01*
X113913047Y-99393375D01*
X113902331Y-99463622D01*
X113863041Y-99525534D01*
X113785650Y-99568397D01*
X113663016Y-99583875D01*
X113544251Y-99575541D01*
X113445131Y-99550537D01*
X113291541Y-99479100D01*
X113205816Y-99717225D01*
X111301113Y-99717225D01*
X111301113Y-97695544D01*
G37*
G04 #@! TO.C,D3*
X125900000Y-85180000D02*
X125900000Y-81280000D01*
X123900000Y-85180000D02*
X123900000Y-81280000D01*
X123900000Y-85180000D02*
X125900000Y-85180000D01*
G04 #@! TO.C,K2*
X128443688Y-88138000D02*
X129967688Y-88138000D01*
X133234688Y-82967000D02*
X132034688Y-82967000D01*
X132834688Y-82267000D02*
X132434688Y-82967000D01*
X129494688Y-82967000D02*
X129494688Y-82267000D01*
X149294688Y-87867000D02*
X149294688Y-77467000D01*
X132034688Y-82267000D02*
X133234688Y-82267000D01*
X133234688Y-82267000D02*
X133234688Y-82967000D01*
X130694688Y-82967000D02*
X129494688Y-82967000D01*
X128694688Y-77467000D02*
X128694688Y-87867000D01*
X130294688Y-82267000D02*
X129894688Y-82967000D01*
X130694688Y-82267000D02*
X130694688Y-82967000D01*
X132034688Y-82967000D02*
X132034688Y-82267000D01*
X132634688Y-82967000D02*
X132634688Y-84067000D01*
X130094688Y-82967000D02*
X130094688Y-84067000D01*
X149294688Y-77467000D02*
X128694688Y-77467000D01*
X132634688Y-82267000D02*
X132634688Y-81167000D01*
X129494688Y-82267000D02*
X130694688Y-82267000D01*
X128694688Y-87867000D02*
X149294688Y-87867000D01*
X130094688Y-82267000D02*
X130094688Y-81167000D01*
X128443688Y-86614000D02*
X128443688Y-88138000D01*
G04 #@! TO.C,kibuzzard-62BC6EF6*
G36*
X112218887Y-67404456D02*
G01*
X106221113Y-67404456D01*
X106221113Y-65544700D01*
X108106766Y-65544700D01*
X108740178Y-65544700D01*
X108715175Y-65623281D01*
X108654453Y-65707816D01*
X108578253Y-65788778D01*
X108506816Y-65856644D01*
X108385372Y-65975706D01*
X108278216Y-66104294D01*
X108202016Y-66241216D01*
X108173441Y-66387663D01*
X108211541Y-66572209D01*
X108313934Y-66704369D01*
X108461572Y-66782950D01*
X108635403Y-66809144D01*
X108759526Y-66797238D01*
X108884244Y-66761519D01*
X109001818Y-66700797D01*
X109104509Y-66613881D01*
X108959253Y-66409094D01*
X108809234Y-66521013D01*
X108663978Y-66554350D01*
X108525866Y-66505534D01*
X108471097Y-66366231D01*
X108515150Y-66240025D01*
X108627069Y-66111438D01*
X108697316Y-66043274D01*
X108772325Y-65972134D01*
X108847334Y-65896530D01*
X108917581Y-65814972D01*
X108979494Y-65726568D01*
X109029500Y-65630425D01*
X109062540Y-65525650D01*
X109073553Y-65411350D01*
X109074460Y-65373250D01*
X109280722Y-65373250D01*
X109354541Y-65604231D01*
X109474794Y-65551844D01*
X109664103Y-65525650D01*
X109834065Y-65559285D01*
X109948662Y-65660191D01*
X109996949Y-65762981D01*
X110025921Y-65891966D01*
X110035578Y-66047144D01*
X110027541Y-66180494D01*
X110003431Y-66290031D01*
X109920087Y-66446003D01*
X109803406Y-66529347D01*
X109668866Y-66554350D01*
X109491462Y-66529347D01*
X109359303Y-66468625D01*
X109283103Y-66701988D01*
X109331919Y-66730563D01*
X109411691Y-66766281D01*
X109522419Y-66796047D01*
X109664103Y-66809144D01*
X109803704Y-66796345D01*
X109931994Y-66757947D01*
X110046294Y-66694844D01*
X110143925Y-66607928D01*
X110223399Y-66498093D01*
X110283228Y-66366231D01*
X110320733Y-66213236D01*
X110333234Y-66040000D01*
X110322965Y-65866020D01*
X110292158Y-65713173D01*
X110240812Y-65581461D01*
X110168928Y-65470881D01*
X110042986Y-65359756D01*
X109884236Y-65293081D01*
X109692678Y-65270856D01*
X109562602Y-65278893D01*
X109448600Y-65303003D01*
X109280722Y-65373250D01*
X109074460Y-65373250D01*
X109074744Y-65361344D01*
X109068791Y-65301813D01*
X108106766Y-65301813D01*
X108106766Y-65544700D01*
X106221113Y-65544700D01*
X106221113Y-64675544D01*
X112218887Y-64675544D01*
X112218887Y-67404456D01*
G37*
G04 #@! TO.C,kibuzzard-62BC6EEB*
G36*
X107138887Y-67388978D02*
G01*
X101141113Y-67388978D01*
X101141113Y-65529222D01*
X103058912Y-65529222D01*
X103692325Y-65529222D01*
X103667322Y-65607803D01*
X103606600Y-65692337D01*
X103530400Y-65773300D01*
X103458962Y-65841166D01*
X103337519Y-65960228D01*
X103230363Y-66088816D01*
X103154163Y-66225737D01*
X103125588Y-66372184D01*
X103163688Y-66556731D01*
X103266081Y-66688891D01*
X103413719Y-66767472D01*
X103587550Y-66793666D01*
X103711673Y-66781759D01*
X103836391Y-66746041D01*
X103953965Y-66685319D01*
X104056656Y-66598403D01*
X103911400Y-66393616D01*
X103761381Y-66505534D01*
X103616125Y-66538872D01*
X103478012Y-66490056D01*
X103423244Y-66350753D01*
X103467297Y-66224547D01*
X103579216Y-66095959D01*
X103649462Y-66027796D01*
X103724472Y-65956656D01*
X103799481Y-65881052D01*
X103869728Y-65799494D01*
X103931641Y-65711090D01*
X103981647Y-65614947D01*
X104014687Y-65510172D01*
X104025700Y-65395872D01*
X104026891Y-65345866D01*
X104020938Y-65286334D01*
X104185244Y-65286334D01*
X104253109Y-65442306D01*
X104335262Y-65606613D01*
X104423369Y-65763775D01*
X104509094Y-65900697D01*
X104404914Y-65967967D01*
X104335262Y-66060241D01*
X104295972Y-66170969D01*
X104282875Y-66293603D01*
X104292698Y-66409391D01*
X104322166Y-66509106D01*
X104435275Y-66660316D01*
X104516237Y-66712108D01*
X104611487Y-66748422D01*
X104719834Y-66769853D01*
X104840088Y-66776997D01*
X104923431Y-66774616D01*
X105023444Y-66768662D01*
X105127028Y-66756756D01*
X105221088Y-66738897D01*
X105221088Y-65286334D01*
X104928194Y-65286334D01*
X104928194Y-65829259D01*
X104775794Y-65829259D01*
X104695129Y-65694421D01*
X104619822Y-65561369D01*
X104551659Y-65426530D01*
X104492425Y-65286334D01*
X104185244Y-65286334D01*
X104020938Y-65286334D01*
X103058912Y-65286334D01*
X103058912Y-65529222D01*
X101141113Y-65529222D01*
X101141113Y-64691022D01*
X107138887Y-64691022D01*
X107138887Y-67388978D01*
G37*
G36*
X104928194Y-66515059D02*
G01*
X104880569Y-66521013D01*
X104840088Y-66522203D01*
X104734717Y-66508511D01*
X104651969Y-66467434D01*
X104598391Y-66397187D01*
X104580531Y-66295984D01*
X104647206Y-66130488D01*
X104734717Y-66086732D01*
X104863900Y-66072147D01*
X104928194Y-66072147D01*
X104928194Y-66515059D01*
G37*
G04 #@! TO.C,kibuzzard-62BC6F5D*
G36*
X103548855Y-98583155D02*
G01*
X103631603Y-98624231D01*
X103685181Y-98694478D01*
X103703041Y-98795681D01*
X103636366Y-98961178D01*
X103548855Y-99004934D01*
X103419672Y-99019519D01*
X103355378Y-99019519D01*
X103355378Y-98576606D01*
X103403003Y-98570653D01*
X103443484Y-98569463D01*
X103548855Y-98583155D01*
G37*
G36*
X101141113Y-97719356D02*
G01*
X107138887Y-97719356D01*
X107138887Y-100400644D01*
X101141113Y-100400644D01*
X101141113Y-99805331D01*
X103062484Y-99805331D01*
X103355378Y-99805331D01*
X103355378Y-99262406D01*
X103507778Y-99262406D01*
X103588443Y-99397245D01*
X103663750Y-99530297D01*
X103731913Y-99665135D01*
X103791147Y-99805331D01*
X104098328Y-99805331D01*
X104030463Y-99649359D01*
X103948309Y-99485053D01*
X103860203Y-99327891D01*
X103774478Y-99190969D01*
X103878658Y-99123698D01*
X103948309Y-99031425D01*
X103987600Y-98920697D01*
X104000697Y-98798062D01*
X103990874Y-98682274D01*
X103977943Y-98638519D01*
X104238822Y-98638519D01*
X104334072Y-98881406D01*
X104479328Y-98823066D01*
X104631728Y-98738531D01*
X104631728Y-99562444D01*
X104322166Y-99562444D01*
X104322166Y-99805331D01*
X105217516Y-99805331D01*
X105217516Y-99562444D01*
X104924622Y-99562444D01*
X104924622Y-98331338D01*
X104724597Y-98331338D01*
X104622203Y-98424206D01*
X104495997Y-98509931D01*
X104362647Y-98583750D01*
X104238822Y-98638519D01*
X103977943Y-98638519D01*
X103961406Y-98582559D01*
X103848297Y-98431350D01*
X103767334Y-98379558D01*
X103672084Y-98343244D01*
X103563738Y-98321812D01*
X103443484Y-98314669D01*
X103360141Y-98317050D01*
X103260128Y-98323003D01*
X103156544Y-98334909D01*
X103062484Y-98352769D01*
X103062484Y-99805331D01*
X101141113Y-99805331D01*
X101141113Y-97719356D01*
G37*
G04 #@! TO.C,J5*
X139700000Y-75565000D02*
X124460000Y-75565000D01*
X124460000Y-67945000D02*
X124460000Y-75565000D01*
X139700000Y-69215000D02*
X124460000Y-69215000D01*
X139700000Y-67945000D02*
X124460000Y-67945000D01*
X139700000Y-67945000D02*
X139700000Y-75565000D01*
G04 #@! TO.C,kibuzzard-62BC6F89*
G36*
X134161113Y-97695544D02*
G01*
X140158887Y-97695544D01*
X140158887Y-100424456D01*
X134161113Y-100424456D01*
X134161113Y-99717225D01*
X136075341Y-99717225D01*
X136239647Y-99789853D01*
X136367639Y-99819321D01*
X136532541Y-99829144D01*
X136699625Y-99816576D01*
X136835753Y-99778873D01*
X136887121Y-99748181D01*
X137268347Y-99748181D01*
X137342166Y-99774375D01*
X137445750Y-99800569D01*
X137562431Y-99820809D01*
X137677922Y-99829144D01*
X137815439Y-99820512D01*
X137932716Y-99794616D01*
X138030347Y-99752944D01*
X138108928Y-99696984D01*
X138211322Y-99548156D01*
X138244659Y-99360037D01*
X138228884Y-99240380D01*
X138181556Y-99138581D01*
X138105654Y-99057023D01*
X138004153Y-98998087D01*
X138137503Y-98874262D01*
X138187509Y-98705194D01*
X138158934Y-98540887D01*
X138070828Y-98408728D01*
X137919619Y-98321812D01*
X137819904Y-98298595D01*
X137704116Y-98290856D01*
X137577612Y-98301870D01*
X137464800Y-98334909D01*
X137294541Y-98421825D01*
X137399316Y-98636137D01*
X137541000Y-98568272D01*
X137706497Y-98540887D01*
X137841038Y-98587322D01*
X137889853Y-98714719D01*
X137867231Y-98805206D01*
X137808891Y-98862356D01*
X137727928Y-98893312D01*
X137637441Y-98902837D01*
X137527903Y-98902837D01*
X137527903Y-99145725D01*
X137618391Y-99145725D01*
X137748764Y-99157334D01*
X137854134Y-99192159D01*
X137923786Y-99256155D01*
X137947003Y-99355275D01*
X137886281Y-99514819D01*
X137803235Y-99563039D01*
X137675541Y-99579112D01*
X137562729Y-99572564D01*
X137467181Y-99552919D01*
X137325497Y-99502912D01*
X137268347Y-99748181D01*
X136887121Y-99748181D01*
X136940925Y-99716034D01*
X137041830Y-99579410D01*
X137075466Y-99395756D01*
X137065345Y-99284730D01*
X137034984Y-99194541D01*
X136931400Y-99061191D01*
X136793288Y-98975466D01*
X136649222Y-98917125D01*
X136557544Y-98881406D01*
X136474200Y-98837353D01*
X136413478Y-98780203D01*
X136389666Y-98705194D01*
X136415595Y-98611267D01*
X136493382Y-98554910D01*
X136623028Y-98536125D01*
X136790906Y-98559937D01*
X136923066Y-98617087D01*
X137008791Y-98390869D01*
X136838531Y-98321812D01*
X136728696Y-98298595D01*
X136601597Y-98290856D01*
X136455679Y-98303821D01*
X136332251Y-98342715D01*
X136231313Y-98407537D01*
X136130407Y-98546841D01*
X136096772Y-98731387D01*
X136134872Y-98906409D01*
X136231313Y-99024281D01*
X136361091Y-99102862D01*
X136499203Y-99157631D01*
X136599216Y-99199303D01*
X136689703Y-99249309D01*
X136756378Y-99312412D01*
X136782572Y-99393375D01*
X136771856Y-99463622D01*
X136732566Y-99525534D01*
X136655175Y-99568397D01*
X136532541Y-99583875D01*
X136413776Y-99575541D01*
X136314656Y-99550537D01*
X136161066Y-99479100D01*
X136075341Y-99717225D01*
X134161113Y-99717225D01*
X134161113Y-97695544D01*
G37*
G04 #@! TO.C,kibuzzard-62BC6D4A*
G36*
X99382461Y-92330191D02*
G01*
X99316381Y-92382181D01*
X99248560Y-92405994D01*
X99162570Y-92420281D01*
X99058412Y-92425044D01*
X98955137Y-92420281D01*
X98869676Y-92405994D01*
X98802031Y-92382181D01*
X98735952Y-92330191D01*
X98713925Y-92259944D01*
X98714416Y-92258356D01*
X98936175Y-92258356D01*
X98967925Y-92323444D01*
X99042537Y-92347256D01*
X99116356Y-92323444D01*
X99147312Y-92258356D01*
X99116356Y-92195650D01*
X99042537Y-92171044D01*
X98967925Y-92195650D01*
X98936175Y-92258356D01*
X98714416Y-92258356D01*
X98735952Y-92188705D01*
X98802031Y-92136913D01*
X98869676Y-92113541D01*
X98955137Y-92099518D01*
X99058412Y-92094844D01*
X99162570Y-92099518D01*
X99248560Y-92113541D01*
X99316381Y-92136913D01*
X99382461Y-92188705D01*
X99403997Y-92258356D01*
X99404487Y-92259944D01*
X99382461Y-92330191D01*
G37*
G36*
X98150362Y-96188237D02*
G01*
X98150362Y-94925356D01*
X98569462Y-94925356D01*
X99552125Y-94925356D01*
X99552125Y-94307819D01*
X99390200Y-94307819D01*
X99390200Y-94728506D01*
X98569462Y-94728506D01*
X98569462Y-94925356D01*
X98150362Y-94925356D01*
X98150362Y-94144306D01*
X98569462Y-94144306D01*
X99552125Y-94144306D01*
X99552125Y-93514069D01*
X99390200Y-93514069D01*
X99390200Y-93949044D01*
X99113975Y-93949044D01*
X99113975Y-93601381D01*
X98952050Y-93601381D01*
X98952050Y-93949044D01*
X98731387Y-93949044D01*
X98731387Y-93548994D01*
X98569462Y-93548994D01*
X98569462Y-94144306D01*
X98150362Y-94144306D01*
X98150362Y-92961619D01*
X98547237Y-92961619D01*
X98555770Y-93054686D01*
X98581369Y-93140213D01*
X98623437Y-93216413D01*
X98681381Y-93281500D01*
X98754605Y-93334483D01*
X98842512Y-93374369D01*
X98944509Y-93399372D01*
X99060000Y-93407706D01*
X99175987Y-93400860D01*
X99277884Y-93380322D01*
X99365693Y-93346091D01*
X99439412Y-93298169D01*
X99513496Y-93214208D01*
X99557946Y-93108374D01*
X99572762Y-92980669D01*
X99567405Y-92893952D01*
X99551331Y-92817950D01*
X99504500Y-92706031D01*
X99350512Y-92755244D01*
X99385437Y-92835413D01*
X99402900Y-92961619D01*
X99380477Y-93074927D01*
X99313206Y-93151325D01*
X99244679Y-93183516D01*
X99158690Y-93202831D01*
X99055237Y-93209269D01*
X98966337Y-93203911D01*
X98893312Y-93187838D01*
X98789331Y-93132275D01*
X98733769Y-93054488D01*
X98717100Y-92964794D01*
X98733769Y-92846525D01*
X98774250Y-92758419D01*
X98618675Y-92707619D01*
X98599625Y-92740163D01*
X98575812Y-92793344D01*
X98555969Y-92867163D01*
X98547237Y-92961619D01*
X98150362Y-92961619D01*
X98150362Y-92259944D01*
X98547237Y-92259944D01*
X98561349Y-92360662D01*
X98603682Y-92444799D01*
X98674237Y-92512356D01*
X98745873Y-92551250D01*
X98833781Y-92579031D01*
X98937961Y-92595700D01*
X99058412Y-92601256D01*
X99180253Y-92595799D01*
X99285425Y-92579428D01*
X99373928Y-92552143D01*
X99445762Y-92513944D01*
X99516318Y-92446916D01*
X99558651Y-92362249D01*
X99572762Y-92259944D01*
X99558651Y-92157638D01*
X99516318Y-92072972D01*
X99445762Y-92005944D01*
X99373928Y-91967745D01*
X99285425Y-91940459D01*
X99180253Y-91924088D01*
X99058412Y-91918631D01*
X98937316Y-91924088D01*
X98832789Y-91940459D01*
X98744832Y-91967745D01*
X98673444Y-92005944D01*
X98603329Y-92072972D01*
X98561260Y-92157638D01*
X98547237Y-92259944D01*
X98150362Y-92259944D01*
X98150362Y-91482069D01*
X98547237Y-91482069D01*
X98555175Y-91564817D01*
X98578987Y-91647962D01*
X98619469Y-91726345D01*
X98677412Y-91794806D01*
X98813937Y-91697969D01*
X98739325Y-91597956D01*
X98717100Y-91501119D01*
X98749644Y-91409044D01*
X98842512Y-91372531D01*
X98926650Y-91401900D01*
X99012375Y-91476512D01*
X99057817Y-91523344D01*
X99105244Y-91573350D01*
X99155647Y-91623356D01*
X99210019Y-91670188D01*
X99268955Y-91711462D01*
X99333050Y-91744800D01*
X99402900Y-91766827D01*
X99479100Y-91774169D01*
X99512437Y-91774963D01*
X99552125Y-91770994D01*
X99552125Y-91129644D01*
X99390200Y-91129644D01*
X99390200Y-91551919D01*
X99337812Y-91535250D01*
X99281456Y-91494769D01*
X99227481Y-91443969D01*
X99182237Y-91396344D01*
X99102862Y-91315381D01*
X99017137Y-91243944D01*
X98925856Y-91193144D01*
X98828225Y-91174094D01*
X98705194Y-91199494D01*
X98617087Y-91267756D01*
X98564700Y-91366181D01*
X98547237Y-91482069D01*
X98150362Y-91482069D01*
X98150362Y-90688319D01*
X98547237Y-90688319D01*
X98555175Y-90771067D01*
X98578987Y-90854212D01*
X98619469Y-90932595D01*
X98677412Y-91001056D01*
X98813937Y-90904219D01*
X98739325Y-90804206D01*
X98717100Y-90707369D01*
X98749644Y-90615294D01*
X98842512Y-90578781D01*
X98926650Y-90608150D01*
X99012375Y-90682763D01*
X99057817Y-90729594D01*
X99105244Y-90779600D01*
X99155647Y-90829606D01*
X99210019Y-90876438D01*
X99268955Y-90917712D01*
X99333050Y-90951050D01*
X99402900Y-90973077D01*
X99479100Y-90980419D01*
X99512437Y-90981212D01*
X99552125Y-90977244D01*
X99552125Y-90335894D01*
X99390200Y-90335894D01*
X99390200Y-90758169D01*
X99337812Y-90741500D01*
X99281456Y-90701019D01*
X99227481Y-90650219D01*
X99182237Y-90602594D01*
X99102862Y-90521631D01*
X99017137Y-90450194D01*
X98925856Y-90399394D01*
X98828225Y-90380344D01*
X98705194Y-90405744D01*
X98617087Y-90474006D01*
X98564700Y-90572431D01*
X98547237Y-90688319D01*
X98150362Y-90688319D01*
X98150362Y-89875519D01*
X98569462Y-89875519D01*
X98631375Y-89943781D01*
X98688525Y-90027919D01*
X98737737Y-90116819D01*
X98774250Y-90199369D01*
X98936175Y-90135869D01*
X98897281Y-90039031D01*
X98840925Y-89937431D01*
X99390200Y-89937431D01*
X99390200Y-90143806D01*
X99552125Y-90143806D01*
X99552125Y-89546906D01*
X99390200Y-89546906D01*
X99390200Y-89742169D01*
X98569462Y-89742169D01*
X98569462Y-89875519D01*
X98150362Y-89875519D01*
X98150362Y-89084944D01*
X98547237Y-89084944D01*
X98561349Y-89185662D01*
X98603682Y-89269799D01*
X98674237Y-89337356D01*
X98745873Y-89376250D01*
X98833781Y-89404031D01*
X98937961Y-89420700D01*
X99058412Y-89426256D01*
X99180253Y-89420799D01*
X99285425Y-89404428D01*
X99373928Y-89377143D01*
X99445762Y-89338944D01*
X99516318Y-89271916D01*
X99558651Y-89187249D01*
X99572762Y-89084944D01*
X99558651Y-88982638D01*
X99516318Y-88897972D01*
X99445762Y-88830944D01*
X99373928Y-88792745D01*
X99285425Y-88765459D01*
X99180253Y-88749088D01*
X99058412Y-88743631D01*
X98937316Y-88749088D01*
X98832789Y-88765459D01*
X98744832Y-88792745D01*
X98673444Y-88830944D01*
X98603329Y-88897972D01*
X98561260Y-88982638D01*
X98547237Y-89084944D01*
X98150362Y-89084944D01*
X98150362Y-88307069D01*
X98547237Y-88307069D01*
X98555175Y-88389817D01*
X98578987Y-88472963D01*
X98619469Y-88551345D01*
X98677412Y-88619806D01*
X98813937Y-88522969D01*
X98739325Y-88422956D01*
X98717100Y-88326119D01*
X98749644Y-88234044D01*
X98842512Y-88197531D01*
X98926650Y-88226900D01*
X99012375Y-88301513D01*
X99057817Y-88348344D01*
X99105244Y-88398350D01*
X99155647Y-88448356D01*
X99210019Y-88495187D01*
X99268955Y-88536462D01*
X99333050Y-88569800D01*
X99402900Y-88591827D01*
X99479100Y-88599169D01*
X99512437Y-88599962D01*
X99552125Y-88595994D01*
X99552125Y-87954644D01*
X99390200Y-87954644D01*
X99390200Y-88376919D01*
X99337812Y-88360250D01*
X99281456Y-88319769D01*
X99227481Y-88268969D01*
X99182237Y-88221344D01*
X99102862Y-88140381D01*
X99017137Y-88068944D01*
X98925856Y-88018144D01*
X98828225Y-87999094D01*
X98705194Y-88024494D01*
X98617087Y-88092756D01*
X98564700Y-88191181D01*
X98547237Y-88307069D01*
X98150362Y-88307069D01*
X98150362Y-86691763D01*
X99969638Y-86691763D01*
X99969638Y-96188237D01*
X98150362Y-96188237D01*
G37*
G36*
X99382461Y-89155191D02*
G01*
X99316381Y-89207181D01*
X99248560Y-89230994D01*
X99162570Y-89245281D01*
X99058412Y-89250044D01*
X98955137Y-89245281D01*
X98869676Y-89230994D01*
X98802031Y-89207181D01*
X98735952Y-89155191D01*
X98713925Y-89084944D01*
X98714416Y-89083356D01*
X98936175Y-89083356D01*
X98967925Y-89148444D01*
X99042537Y-89172256D01*
X99116356Y-89148444D01*
X99147312Y-89083356D01*
X99116356Y-89020650D01*
X99042537Y-88996044D01*
X98967925Y-89020650D01*
X98936175Y-89083356D01*
X98714416Y-89083356D01*
X98735952Y-89013705D01*
X98802031Y-88961912D01*
X98869676Y-88938541D01*
X98955137Y-88924518D01*
X99058412Y-88919844D01*
X99162570Y-88924518D01*
X99248560Y-88938541D01*
X99316381Y-88961912D01*
X99382461Y-89013705D01*
X99403997Y-89083356D01*
X99404487Y-89084944D01*
X99382461Y-89155191D01*
G37*
G04 #@! TO.C,kibuzzard-62BC6F76*
G36*
X124001113Y-97695544D02*
G01*
X129998887Y-97695544D01*
X129998887Y-100424456D01*
X124001113Y-100424456D01*
X124001113Y-99798187D01*
X125932009Y-99798187D01*
X126224903Y-99798187D01*
X126224903Y-99255262D01*
X126377303Y-99255262D01*
X126457968Y-99390101D01*
X126533275Y-99523153D01*
X126601438Y-99657991D01*
X126660672Y-99798187D01*
X126967853Y-99798187D01*
X126946095Y-99748181D01*
X127091678Y-99748181D01*
X127165497Y-99774375D01*
X127269081Y-99800569D01*
X127385763Y-99820809D01*
X127501253Y-99829144D01*
X127638770Y-99820512D01*
X127756047Y-99794616D01*
X127853678Y-99752944D01*
X127932259Y-99696984D01*
X128034653Y-99548156D01*
X128067991Y-99360037D01*
X128052215Y-99240380D01*
X128004888Y-99138581D01*
X127928985Y-99057023D01*
X127827484Y-98998087D01*
X127960834Y-98874262D01*
X128010841Y-98705194D01*
X127982266Y-98540887D01*
X127894159Y-98408728D01*
X127742950Y-98321812D01*
X127643235Y-98298595D01*
X127527447Y-98290856D01*
X127400943Y-98301870D01*
X127288131Y-98334909D01*
X127117872Y-98421825D01*
X127222647Y-98636137D01*
X127364331Y-98568272D01*
X127529828Y-98540887D01*
X127664369Y-98587322D01*
X127713184Y-98714719D01*
X127690563Y-98805206D01*
X127632222Y-98862356D01*
X127551259Y-98893312D01*
X127460772Y-98902837D01*
X127351234Y-98902837D01*
X127351234Y-99145725D01*
X127441722Y-99145725D01*
X127572095Y-99157334D01*
X127677466Y-99192159D01*
X127747117Y-99256155D01*
X127770334Y-99355275D01*
X127709613Y-99514819D01*
X127626566Y-99563039D01*
X127498872Y-99579112D01*
X127386060Y-99572564D01*
X127290513Y-99552919D01*
X127148828Y-99502912D01*
X127091678Y-99748181D01*
X126946095Y-99748181D01*
X126899988Y-99642216D01*
X126817834Y-99477909D01*
X126729728Y-99320747D01*
X126644003Y-99183825D01*
X126748183Y-99116555D01*
X126817834Y-99024281D01*
X126857125Y-98913553D01*
X126870222Y-98790919D01*
X126860399Y-98675130D01*
X126830931Y-98575416D01*
X126717822Y-98424206D01*
X126636859Y-98372414D01*
X126541609Y-98336100D01*
X126433263Y-98314669D01*
X126313009Y-98307525D01*
X126229666Y-98309906D01*
X126129653Y-98315859D01*
X126026069Y-98327766D01*
X125932009Y-98345625D01*
X125932009Y-99798187D01*
X124001113Y-99798187D01*
X124001113Y-97695544D01*
G37*
G36*
X126418380Y-98576011D02*
G01*
X126501128Y-98617087D01*
X126554706Y-98687334D01*
X126572566Y-98788537D01*
X126505891Y-98954034D01*
X126418380Y-98997790D01*
X126289197Y-99012375D01*
X126224903Y-99012375D01*
X126224903Y-98569462D01*
X126272528Y-98563509D01*
X126313009Y-98562319D01*
X126418380Y-98576011D01*
G37*
G04 #@! TO.C,kibuzzard-62BC6F2E*
G36*
X129998887Y-67380644D02*
G01*
X124001113Y-67380644D01*
X124001113Y-65882838D01*
X125903434Y-65882838D01*
X126062978Y-65882838D01*
X126062978Y-66768662D01*
X126324916Y-66768662D01*
X126420166Y-66667162D01*
X126515416Y-66553159D01*
X126608284Y-66432013D01*
X126696391Y-66309081D01*
X126778544Y-66186745D01*
X126853553Y-66067384D01*
X126918442Y-65955763D01*
X126970234Y-65856644D01*
X126970234Y-65642331D01*
X126355872Y-65642331D01*
X126355872Y-65294669D01*
X127060722Y-65294669D01*
X127128587Y-65450641D01*
X127210741Y-65614947D01*
X127298847Y-65772109D01*
X127384572Y-65909031D01*
X127280392Y-65976302D01*
X127210741Y-66068575D01*
X127171450Y-66179303D01*
X127158353Y-66301938D01*
X127168176Y-66417726D01*
X127197644Y-66517441D01*
X127310753Y-66668650D01*
X127391716Y-66720442D01*
X127486966Y-66756756D01*
X127595312Y-66778188D01*
X127715566Y-66785331D01*
X127798909Y-66782950D01*
X127898922Y-66776997D01*
X128002506Y-66765091D01*
X128096566Y-66747231D01*
X128096566Y-65294669D01*
X127803672Y-65294669D01*
X127803672Y-65837594D01*
X127651272Y-65837594D01*
X127570607Y-65702755D01*
X127495300Y-65569703D01*
X127427137Y-65434865D01*
X127367903Y-65294669D01*
X127060722Y-65294669D01*
X126355872Y-65294669D01*
X126062978Y-65294669D01*
X126062978Y-65642331D01*
X125903434Y-65642331D01*
X125903434Y-65882838D01*
X124001113Y-65882838D01*
X124001113Y-64699356D01*
X129998887Y-64699356D01*
X129998887Y-67380644D01*
G37*
G36*
X127803672Y-66523394D02*
G01*
X127756047Y-66529347D01*
X127715566Y-66530537D01*
X127610195Y-66516845D01*
X127527447Y-66475769D01*
X127473869Y-66405522D01*
X127456009Y-66304319D01*
X127522684Y-66138822D01*
X127610195Y-66095066D01*
X127739378Y-66080481D01*
X127803672Y-66080481D01*
X127803672Y-66523394D01*
G37*
G36*
X126617809Y-66018569D02*
G01*
X126533275Y-66155491D01*
X126443978Y-66285269D01*
X126355872Y-66401950D01*
X126355872Y-65882838D01*
X126689247Y-65882838D01*
X126617809Y-66018569D01*
G37*
G04 #@! TO.C,kibuzzard-62BC6E84*
G36*
X86454456Y-79551113D02*
G01*
X86454456Y-85548887D01*
X83725544Y-85548887D01*
X83725544Y-82664300D01*
X84320856Y-82664300D01*
X84328893Y-82794376D01*
X84353003Y-82908378D01*
X84423250Y-83076256D01*
X84654231Y-83002437D01*
X84601844Y-82882184D01*
X84575650Y-82692875D01*
X84609285Y-82522913D01*
X84710191Y-82408316D01*
X84812981Y-82360029D01*
X84941966Y-82331057D01*
X85097144Y-82321400D01*
X85230494Y-82329437D01*
X85340031Y-82353547D01*
X85496003Y-82436891D01*
X85579347Y-82553572D01*
X85604350Y-82688112D01*
X85579347Y-82865516D01*
X85518625Y-82997675D01*
X85751988Y-83073875D01*
X85780563Y-83025059D01*
X85816281Y-82945287D01*
X85846047Y-82834559D01*
X85859144Y-82692875D01*
X85846345Y-82553274D01*
X85807947Y-82424984D01*
X85744844Y-82310684D01*
X85657928Y-82213053D01*
X85548093Y-82133579D01*
X85416231Y-82073750D01*
X85263236Y-82036245D01*
X85090000Y-82023744D01*
X84916020Y-82034013D01*
X84763173Y-82064820D01*
X84631461Y-82116166D01*
X84520881Y-82188050D01*
X84409756Y-82313992D01*
X84343081Y-82472742D01*
X84320856Y-82664300D01*
X83725544Y-82664300D01*
X83725544Y-79551113D01*
X86454456Y-79551113D01*
G37*
G04 #@! TO.C,kibuzzard-62BC6F39*
G36*
X136761141Y-66025713D02*
G01*
X136676606Y-66162634D01*
X136587309Y-66292413D01*
X136499203Y-66409094D01*
X136499203Y-65889981D01*
X136832578Y-65889981D01*
X136761141Y-66025713D01*
G37*
G36*
X140158887Y-67404456D02*
G01*
X134161113Y-67404456D01*
X134161113Y-65889981D01*
X136046766Y-65889981D01*
X136206309Y-65889981D01*
X136206309Y-66775806D01*
X136468247Y-66775806D01*
X136563497Y-66674305D01*
X136658747Y-66560303D01*
X136751616Y-66439157D01*
X136839722Y-66316225D01*
X136921875Y-66193888D01*
X136996884Y-66074528D01*
X137061773Y-65962907D01*
X137113566Y-65863788D01*
X137113566Y-65704244D01*
X137273109Y-65704244D01*
X137283230Y-65815270D01*
X137313591Y-65905459D01*
X137417175Y-66038809D01*
X137555287Y-66124534D01*
X137699353Y-66182875D01*
X137791031Y-66218594D01*
X137874375Y-66262647D01*
X137935097Y-66319797D01*
X137958909Y-66394806D01*
X137932980Y-66488733D01*
X137855193Y-66545090D01*
X137725547Y-66563875D01*
X137557669Y-66540063D01*
X137425509Y-66482913D01*
X137339784Y-66709131D01*
X137510044Y-66778188D01*
X137619879Y-66801405D01*
X137746978Y-66809144D01*
X137892896Y-66796179D01*
X138016324Y-66757285D01*
X138117262Y-66692463D01*
X138218168Y-66553159D01*
X138251803Y-66368613D01*
X138213703Y-66193591D01*
X138117262Y-66075719D01*
X137987484Y-65997138D01*
X137849372Y-65942369D01*
X137749359Y-65900697D01*
X137658872Y-65850691D01*
X137592197Y-65787588D01*
X137566003Y-65706625D01*
X137576719Y-65636378D01*
X137616009Y-65574466D01*
X137693400Y-65531603D01*
X137816034Y-65516125D01*
X137934799Y-65524459D01*
X138033919Y-65549463D01*
X138187509Y-65620900D01*
X138273234Y-65382775D01*
X138108928Y-65310147D01*
X137980936Y-65280679D01*
X137816034Y-65270856D01*
X137648950Y-65283424D01*
X137512822Y-65321127D01*
X137407650Y-65383966D01*
X137306745Y-65520590D01*
X137273109Y-65704244D01*
X137113566Y-65704244D01*
X137113566Y-65649475D01*
X136499203Y-65649475D01*
X136499203Y-65301813D01*
X136206309Y-65301813D01*
X136206309Y-65649475D01*
X136046766Y-65649475D01*
X136046766Y-65889981D01*
X134161113Y-65889981D01*
X134161113Y-64675544D01*
X140158887Y-64675544D01*
X140158887Y-67404456D01*
G37*
G04 #@! TO.C,kibuzzard-62BC6F64*
G36*
X106221113Y-97695544D02*
G01*
X112218887Y-97695544D01*
X112218887Y-100424456D01*
X106221113Y-100424456D01*
X106221113Y-99060000D01*
X108110338Y-99060000D01*
X108120607Y-99233980D01*
X108151414Y-99386827D01*
X108202760Y-99518539D01*
X108274644Y-99629119D01*
X108400585Y-99740244D01*
X108559335Y-99806919D01*
X108750894Y-99829144D01*
X108880970Y-99821107D01*
X108994972Y-99796997D01*
X109162850Y-99726750D01*
X109089031Y-99495769D01*
X108968778Y-99548156D01*
X108779469Y-99574350D01*
X108609507Y-99540715D01*
X108494909Y-99439809D01*
X108446623Y-99337019D01*
X108417651Y-99208034D01*
X108407994Y-99052856D01*
X108416030Y-98919506D01*
X108440141Y-98809969D01*
X108523484Y-98653997D01*
X108640166Y-98570653D01*
X108774706Y-98545650D01*
X108952109Y-98570653D01*
X109084269Y-98631375D01*
X109350969Y-98631375D01*
X109446219Y-98874262D01*
X109591475Y-98815922D01*
X109743875Y-98731387D01*
X109743875Y-99555300D01*
X109434313Y-99555300D01*
X109434313Y-99798187D01*
X110329663Y-99798187D01*
X110329663Y-99555300D01*
X110036769Y-99555300D01*
X110036769Y-98324194D01*
X109836744Y-98324194D01*
X109734350Y-98417062D01*
X109608144Y-98502787D01*
X109474794Y-98576606D01*
X109350969Y-98631375D01*
X109084269Y-98631375D01*
X109160469Y-98398012D01*
X109111653Y-98369437D01*
X109031881Y-98333719D01*
X108921153Y-98303953D01*
X108779469Y-98290856D01*
X108639868Y-98303655D01*
X108511578Y-98342053D01*
X108397278Y-98405156D01*
X108299647Y-98492072D01*
X108220173Y-98601907D01*
X108160344Y-98733769D01*
X108122839Y-98886764D01*
X108110338Y-99060000D01*
X106221113Y-99060000D01*
X106221113Y-97695544D01*
G37*
G04 #@! TO.C,J4*
X124460000Y-97790000D02*
X124460000Y-90170000D01*
X139700000Y-97790000D02*
X139700000Y-90170000D01*
X124460000Y-96520000D02*
X139700000Y-96520000D01*
X124460000Y-90170000D02*
X139700000Y-90170000D01*
X124460000Y-97790000D02*
X139700000Y-97790000D01*
G04 #@! TO.C,kibuzzard-62BC6EFE*
G36*
X117298887Y-67404456D02*
G01*
X111301113Y-67404456D01*
X111301113Y-65544700D01*
X113202244Y-65544700D01*
X113835656Y-65544700D01*
X113810653Y-65623281D01*
X113749931Y-65707816D01*
X113673731Y-65788778D01*
X113602294Y-65856644D01*
X113480850Y-65975706D01*
X113373694Y-66104294D01*
X113297494Y-66241216D01*
X113268919Y-66387663D01*
X113307019Y-66572209D01*
X113409413Y-66704369D01*
X113557050Y-66782950D01*
X113730881Y-66809144D01*
X113855004Y-66797238D01*
X113979722Y-66761519D01*
X114097296Y-66700797D01*
X114199988Y-66613881D01*
X114054731Y-66409094D01*
X113904713Y-66521013D01*
X113759456Y-66554350D01*
X113621344Y-66505534D01*
X113566575Y-66366231D01*
X113610628Y-66240025D01*
X113722547Y-66111438D01*
X113792794Y-66043274D01*
X113867803Y-65972134D01*
X113942813Y-65896530D01*
X114013059Y-65814972D01*
X114074972Y-65726568D01*
X114086583Y-65704244D01*
X114397631Y-65704244D01*
X114407752Y-65815270D01*
X114438113Y-65905459D01*
X114541697Y-66038809D01*
X114679809Y-66124534D01*
X114823875Y-66182875D01*
X114915553Y-66218594D01*
X114998897Y-66262647D01*
X115059619Y-66319797D01*
X115083431Y-66394806D01*
X115057502Y-66488733D01*
X114979715Y-66545090D01*
X114850069Y-66563875D01*
X114682191Y-66540063D01*
X114550031Y-66482913D01*
X114464306Y-66709131D01*
X114634566Y-66778188D01*
X114744401Y-66801405D01*
X114871500Y-66809144D01*
X115017418Y-66796179D01*
X115140846Y-66757285D01*
X115241784Y-66692463D01*
X115342690Y-66553159D01*
X115376325Y-66368613D01*
X115338225Y-66193591D01*
X115241784Y-66075719D01*
X115112006Y-65997138D01*
X114973894Y-65942369D01*
X114873881Y-65900697D01*
X114783394Y-65850691D01*
X114716719Y-65787588D01*
X114690525Y-65706625D01*
X114701241Y-65636378D01*
X114740531Y-65574466D01*
X114817922Y-65531603D01*
X114940556Y-65516125D01*
X115059321Y-65524459D01*
X115158441Y-65549463D01*
X115312031Y-65620900D01*
X115397756Y-65382775D01*
X115233450Y-65310147D01*
X115105458Y-65280679D01*
X114940556Y-65270856D01*
X114773472Y-65283424D01*
X114637344Y-65321127D01*
X114532172Y-65383966D01*
X114431266Y-65520590D01*
X114397631Y-65704244D01*
X114086583Y-65704244D01*
X114124978Y-65630425D01*
X114158018Y-65525650D01*
X114169031Y-65411350D01*
X114170222Y-65361344D01*
X114164269Y-65301813D01*
X113202244Y-65301813D01*
X113202244Y-65544700D01*
X111301113Y-65544700D01*
X111301113Y-64675544D01*
X117298887Y-64675544D01*
X117298887Y-67404456D01*
G37*
G04 #@! TO.C,kibuzzard-62BC6F83*
G36*
X129081113Y-97695544D02*
G01*
X135078887Y-97695544D01*
X135078887Y-100424456D01*
X129081113Y-100424456D01*
X129081113Y-99060000D01*
X130979862Y-99060000D01*
X130990132Y-99233980D01*
X131020939Y-99386827D01*
X131072285Y-99518539D01*
X131144169Y-99629119D01*
X131270110Y-99740244D01*
X131428860Y-99806919D01*
X131620419Y-99829144D01*
X131750495Y-99821107D01*
X131864497Y-99796997D01*
X131981159Y-99748181D01*
X132203825Y-99748181D01*
X132277644Y-99774375D01*
X132381228Y-99800569D01*
X132497909Y-99820809D01*
X132613400Y-99829144D01*
X132750917Y-99820512D01*
X132868194Y-99794616D01*
X132965825Y-99752944D01*
X133044406Y-99696984D01*
X133146800Y-99548156D01*
X133180137Y-99360037D01*
X133164362Y-99240380D01*
X133117034Y-99138581D01*
X133041132Y-99057023D01*
X132939631Y-98998087D01*
X133072981Y-98874262D01*
X133122987Y-98705194D01*
X133094412Y-98540887D01*
X133006306Y-98408728D01*
X132855097Y-98321812D01*
X132755382Y-98298595D01*
X132639594Y-98290856D01*
X132513090Y-98301870D01*
X132400278Y-98334909D01*
X132230019Y-98421825D01*
X132334794Y-98636137D01*
X132476478Y-98568272D01*
X132641975Y-98540887D01*
X132776516Y-98587322D01*
X132825331Y-98714719D01*
X132802709Y-98805206D01*
X132744369Y-98862356D01*
X132663406Y-98893312D01*
X132572919Y-98902837D01*
X132463381Y-98902837D01*
X132463381Y-99145725D01*
X132553869Y-99145725D01*
X132684242Y-99157334D01*
X132789612Y-99192159D01*
X132859264Y-99256155D01*
X132882481Y-99355275D01*
X132821759Y-99514819D01*
X132738713Y-99563039D01*
X132611019Y-99579112D01*
X132498207Y-99572564D01*
X132402659Y-99552919D01*
X132260975Y-99502912D01*
X132203825Y-99748181D01*
X131981159Y-99748181D01*
X132032375Y-99726750D01*
X131958556Y-99495769D01*
X131838303Y-99548156D01*
X131648994Y-99574350D01*
X131479032Y-99540715D01*
X131364434Y-99439809D01*
X131316148Y-99337019D01*
X131287176Y-99208034D01*
X131277519Y-99052856D01*
X131285555Y-98919506D01*
X131309666Y-98809969D01*
X131393009Y-98653997D01*
X131509691Y-98570653D01*
X131644231Y-98545650D01*
X131821634Y-98570653D01*
X131953794Y-98631375D01*
X132029994Y-98398012D01*
X131981178Y-98369437D01*
X131901406Y-98333719D01*
X131790678Y-98303953D01*
X131648994Y-98290856D01*
X131509393Y-98303655D01*
X131381103Y-98342053D01*
X131266803Y-98405156D01*
X131169172Y-98492072D01*
X131089698Y-98601907D01*
X131029869Y-98733769D01*
X130992364Y-98886764D01*
X130979862Y-99060000D01*
X129081113Y-99060000D01*
X129081113Y-97695544D01*
G37*
G04 #@! TO.C,kibuzzard-62BC6E90*
G36*
X86454456Y-84631113D02*
G01*
X86454456Y-90628887D01*
X83725544Y-90628887D01*
X83725544Y-87587138D01*
X84320856Y-87587138D01*
X84333424Y-87754222D01*
X84371127Y-87890350D01*
X84433966Y-87995522D01*
X84570590Y-88096427D01*
X84754244Y-88130063D01*
X84865270Y-88119942D01*
X84955459Y-88089581D01*
X85088809Y-87985997D01*
X85174534Y-87847884D01*
X85232875Y-87703819D01*
X85268594Y-87612141D01*
X85312647Y-87528797D01*
X85369797Y-87468075D01*
X85444806Y-87444263D01*
X85538733Y-87470192D01*
X85595090Y-87547979D01*
X85613875Y-87677625D01*
X85590063Y-87845503D01*
X85532913Y-87977662D01*
X85759131Y-88063388D01*
X85828188Y-87893128D01*
X85851405Y-87783293D01*
X85859144Y-87656194D01*
X85846179Y-87510276D01*
X85807285Y-87386848D01*
X85742463Y-87285909D01*
X85603159Y-87185004D01*
X85418613Y-87151369D01*
X85243591Y-87189469D01*
X85125719Y-87285909D01*
X85047138Y-87415687D01*
X84992369Y-87553800D01*
X84950697Y-87653813D01*
X84900691Y-87744300D01*
X84837588Y-87810975D01*
X84756625Y-87837169D01*
X84686378Y-87826453D01*
X84624466Y-87787163D01*
X84581603Y-87709772D01*
X84566125Y-87587138D01*
X84574459Y-87468373D01*
X84599463Y-87369253D01*
X84670900Y-87215663D01*
X84432775Y-87129938D01*
X84360147Y-87294244D01*
X84330679Y-87422236D01*
X84320856Y-87587138D01*
X83725544Y-87587138D01*
X83725544Y-84631113D01*
X86454456Y-84631113D01*
G37*
G04 #@! TO.C,D4*
X126300000Y-85180000D02*
X128300000Y-85180000D01*
X128300000Y-85180000D02*
X128300000Y-81280000D01*
X126300000Y-85180000D02*
X126300000Y-81280000D01*
G04 #@! TD*
M02*
